<?xml version="1.0" standalone="no"?>
<!DOCTYPE svg PUBLIC "-//W3C//DTD SVG 20010904//EN"
 "http://www.w3.org/TR/2001/REC-SVG-20010904/DTD/svg10.dtd">
<svg version="1.0" xmlns="http://www.w3.org/2000/svg"
 width="500.000000pt" height="500.000000pt" viewBox="0 0 500.000000 500.000000"
 preserveAspectRatio="xMidYMid meet">
<metadata>
Created by potrace 1.14, written by Peter Selinger 2001-2017
</metadata>
<g transform="translate(0.000000,500.000000) scale(0.100000,-0.100000)"
fill="#000000" stroke="none">
<path d="M2435 4769 c-4 -6 -4 -13 -1 -16 3 -4 6 -1 6 6 0 7 5 9 11 5 17 -10
-10 -23 -38 -18 -15 3 -22 1 -18 -6 3 -5 -1 -10 -10 -10 -12 0 -15 -6 -10 -22
5 -20 4 -21 -5 -5 -6 9 -16 17 -23 17 -7 0 -6 -4 3 -10 13 -9 12 -12 -4 -25
-14 -11 -16 -15 -5 -15 9 0 10 -3 3 -8 -12 -8 -13 -70 -1 -89 5 -9 3 -11 -6
-7 -19 7 -32 -12 -16 -22 8 -4 9 -3 5 4 -5 8 -1 10 10 5 11 -4 13 -8 6 -11 -7
-2 -9 -9 -6 -14 4 -6 -1 -17 -11 -25 -11 -7 -14 -13 -8 -13 6 0 14 -7 17 -16
5 -12 3 -14 -7 -8 -7 5 -5 2 4 -7 13 -12 15 -19 6 -28 -8 -8 -8 -11 1 -11 6 0
9 -6 6 -14 -3 -8 0 -17 6 -21 8 -5 6 -13 -7 -28 -10 -11 -13 -17 -6 -14 6 4
14 3 17 -2 3 -5 -2 -12 -11 -15 -14 -6 -15 -9 -4 -15 10 -7 11 -13 1 -31 -7
-12 -7 -20 -2 -16 14 9 9 -19 -7 -38 -7 -9 -18 -13 -25 -9 -7 4 -7 1 1 -7 10
-10 6 -21 -18 -52 -17 -21 -35 -36 -40 -33 -5 4 -7 0 -4 -7 7 -19 -21 -52 -36
-42 -8 5 -11 2 -6 -8 3 -10 -1 -18 -13 -21 -13 -3 -18 -12 -16 -30 2 -16 -1
-24 -9 -21 -6 3 -18 -3 -26 -13 -13 -17 -13 -17 5 -3 18 14 18 14 6 -7 -8 -12
-16 -20 -20 -19 -3 2 -16 -8 -30 -22 -14 -14 -18 -20 -9 -14 12 9 16 9 16 -3
0 -8 -3 -12 -7 -10 -3 2 -12 0 -20 -5 -16 -10 -15 -131 1 -141 6 -4 4 -9 -6
-12 -10 -5 -14 -3 -9 5 4 6 3 8 -4 5 -5 -4 -8 -17 -4 -29 3 -14 1 -19 -6 -14
-6 3 -14 1 -18 -6 -4 -7 -4 -10 1 -6 8 8 34 -20 35 -37 0 -5 -4 -4 -9 4 -11
17 -51 25 -51 11 0 -6 3 -9 8 -9 18 3 32 -2 32 -11 0 -5 -5 -9 -11 -7 -6 1
-14 -5 -16 -13 -4 -13 -3 -13 6 0 9 13 11 13 12 -2 3 -31 4 -36 11 -43 8 -8
-13 -45 -26 -45 -4 0 -3 6 3 13 8 10 7 14 -4 14 -8 0 -13 -3 -10 -5 3 -3 -2
-17 -12 -31 -12 -19 -13 -23 -2 -14 13 10 15 7 15 -24 0 -20 -2 -31 -4 -24 -5
15 -23 14 -19 -1 1 -7 8 -18 16 -24 11 -9 12 -12 1 -19 -8 -5 -11 -4 -7 2 3 5
0 10 -7 10 -20 0 -7 -27 13 -28 11 0 12 -2 3 -6 -10 -4 -10 -8 -1 -19 7 -8 9
-17 5 -21 -3 -3 -6 -1 -6 5 0 7 -4 12 -10 12 -15 0 -7 -24 10 -32 12 -5 11 -7
-4 -7 -19 -1 -19 -2 -2 -14 17 -13 17 -14 1 -30 -12 -12 -13 -17 -3 -17 7 0
13 -11 13 -24 0 -13 -3 -22 -6 -20 -4 2 -10 -3 -13 -12 -10 -25 -7 -27 12 -13
16 13 16 13 0 -7 -20 -23 -24 -39 -6 -28 7 4 8 3 4 -4 -4 -7 -15 -12 -24 -12
-13 0 -13 -2 4 -15 10 -8 15 -15 9 -14 -22 3 -29 -2 -15 -11 13 -9 13 -10 0
-10 -13 0 -13 -1 0 -10 10 -6 11 -10 3 -10 -7 0 -13 -9 -13 -20 0 -11 -5 -20
-12 -20 -6 0 -8 -3 -5 -6 4 -4 13 -1 22 6 9 8 15 8 15 2 0 -6 -10 -18 -22 -27
l-23 -17 25 8 c21 6 23 5 13 -8 -10 -11 -10 -17 -1 -26 9 -9 7 -17 -7 -32 -21
-23 -28 -60 -11 -60 6 0 4 -5 -4 -10 -13 -9 -13 -11 0 -20 13 -8 12 -10 -5
-11 -11 0 -15 -3 -8 -5 8 -4 9 -13 3 -30 -8 -19 -6 -26 5 -31 13 -5 13 -7 -2
-19 -17 -13 -17 -14 1 -7 14 4 17 2 14 -8 -3 -8 -10 -13 -15 -12 -5 1 -10 -7
-10 -18 -1 -11 5 -19 13 -19 14 0 13 -2 0 -16 -18 -17 -21 -28 -6 -19 6 3 10
2 10 -4 0 -5 -8 -15 -17 -20 -10 -6 -13 -11 -6 -11 18 0 8 -33 -13 -41 -10 -4
-13 -8 -5 -8 7 -1 11 -7 7 -16 -3 -8 2 -19 11 -24 15 -8 15 -11 3 -27 -9 -11
-10 -15 -2 -10 16 10 16 -25 0 -43 -11 -11 -10 -13 4 -8 15 5 16 4 6 -13 -7
-10 -16 -16 -22 -13 -5 3 -6 1 -2 -5 3 -6 2 -13 -4 -17 -5 -3 -10 -15 -10 -26
0 -10 -3 -18 -7 -17 -5 2 -9 -1 -10 -7 -1 -5 5 -9 13 -9 11 2 12 -1 3 -12 -9
-11 -8 -14 7 -15 18 0 18 -1 -1 -9 -18 -8 -18 -9 5 -9 18 -1 21 -4 12 -10 -10
-6 -8 -10 8 -14 19 -5 20 -8 10 -27 -6 -12 -9 -24 -6 -28 3 -3 6 0 6 6 0 17
17 15 24 -4 4 -10 2 -13 -6 -8 -7 4 -8 3 -4 -4 4 -7 11 -12 17 -12 16 0 45
-36 40 -51 -4 -12 -2 -12 12 0 15 12 17 11 17 -8 0 -23 14 -28 26 -9 5 7 2 8
-7 3 -8 -5 -11 -4 -6 1 5 5 16 9 25 9 10 0 16 7 16 17 -1 10 5 18 15 19 11 0
12 2 3 6 -10 4 -10 8 0 21 11 13 11 14 -1 8 -9 -6 -12 -5 -9 5 3 8 2 26 -3 41
-6 22 -5 26 9 20 15 -5 16 -4 2 13 -8 10 -10 16 -3 12 6 -4 15 -2 19 4 4 8 3
9 -4 5 -7 -4 -12 -2 -12 4 0 6 -4 8 -10 5 -5 -3 -10 -1 -10 4 0 6 8 11 18 11
9 0 13 4 7 8 -16 11 -17 42 -3 60 11 14 10 15 -7 8 -16 -6 -17 -5 -8 5 8 8 9
18 2 31 -5 10 -7 23 -3 29 4 6 0 15 -7 20 -11 7 -10 9 4 9 15 0 16 3 6 23 -11
19 -11 21 3 9 13 -10 18 -10 24 -1 4 8 3 9 -4 5 -19 -11 -14 5 6 21 9 8 11 12
5 8 -8 -4 -13 0 -13 10 0 10 5 13 13 9 7 -5 6 0 -3 11 -8 10 -10 16 -3 12 7
-5 13 1 15 15 2 13 8 22 14 21 6 -1 10 8 9 20 -1 12 -8 22 -15 22 -7 0 -15 6
-18 14 -3 8 0 11 6 7 7 -4 8 3 2 23 -6 21 -4 35 6 48 7 10 13 23 14 28 0 6 -5
3 -10 -5 -6 -9 -10 -10 -10 -3 0 6 5 15 11 18 6 4 8 14 5 22 -3 8 -1 11 4 8 6
-3 10 -1 10 5 0 6 5 8 12 4 7 -5 8 -3 2 7 -16 26 -12 37 11 34 16 -1 22 2 18
11 -3 8 -10 11 -17 7 -6 -4 -5 1 3 10 7 9 17 15 20 12 4 -2 8 2 8 10 0 8 -4
12 -9 9 -4 -3 -8 0 -8 5 0 6 5 11 11 11 5 0 7 6 3 13 -5 8 -2 7 9 -2 15 -12
17 -12 11 4 -6 14 -4 16 7 11 8 -4 4 1 -8 12 l-22 20 22 6 c18 5 20 8 7 16
-13 9 -13 10 0 10 13 0 13 1 0 10 -14 9 -7 14 15 11 6 -1 1 6 -10 15 -19 16
-19 16 10 10 26 -6 28 -6 13 6 -16 12 -19 40 -6 54 4 3 5 -2 3 -13 -1 -10 4
-25 12 -35 10 -11 11 -18 4 -23 -6 -3 -11 -11 -11 -16 0 -6 5 -7 10 -4 14 9
12 -8 -2 -24 -11 -11 -10 -13 2 -9 11 4 15 -2 14 -22 0 -14 -4 -33 -9 -40 -6
-9 -4 -11 5 -5 9 5 11 4 6 -4 -4 -6 -2 -19 5 -27 9 -11 9 -18 1 -26 -7 -7 -12
-17 -12 -22 0 -6 4 -6 8 1 5 9 11 6 21 -9 11 -18 11 -20 -3 -15 -10 4 -13 1
-9 -8 3 -8 9 -12 14 -9 5 3 9 1 9 -5 0 -5 -6 -12 -12 -14 -7 -3 -4 -6 7 -7 19
-1 19 -1 2 -14 -17 -14 -17 -15 5 -22 22 -7 22 -7 3 -15 -18 -7 -18 -8 5 -8
14 -1 20 -5 14 -9 -6 -4 -14 -15 -17 -26 -6 -14 -4 -17 8 -12 9 3 13 2 10 -4
-3 -6 -2 -10 3 -10 12 0 11 -34 -2 -42 -8 -6 -6 -11 4 -18 12 -8 12 -10 1 -10
-9 0 -12 -8 -9 -25 3 -14 1 -25 -3 -25 -5 0 -9 -5 -9 -11 0 -5 6 -7 13 -3 9 6
9 5 0 -7 -10 -12 -10 -18 0 -28 10 -11 8 -11 -10 -2 -15 8 -23 8 -23 1 0 -5 5
-10 10 -10 6 0 10 -5 10 -11 0 -5 -4 -8 -9 -4 -11 6 -7 -28 5 -47 4 -6 3 -8
-4 -4 -6 3 -13 2 -17 -4 -3 -5 -2 -10 3 -10 6 0 13 -7 16 -16 3 -8 2 -12 -4
-9 -6 3 -10 1 -10 -4 0 -6 8 -11 18 -12 14 0 14 -2 -3 -9 -14 -6 -16 -9 -5
-10 8 -2 19 -2 23 -1 5 1 6 -3 2 -9 -3 -6 -11 -8 -16 -5 -5 4 -9 1 -9 -4 0 -6
3 -11 8 -11 12 0 31 -49 21 -56 -6 -3 -8 -19 -5 -35 2 -16 0 -27 -5 -23 -5 3
-7 9 -4 14 3 5 1 11 -4 14 -5 3 -8 -8 -7 -24 1 -17 -4 -36 -11 -41 -13 -11 -8
-33 5 -25 4 2 13 -3 21 -11 12 -13 11 -14 -7 -8 -18 5 -21 3 -15 -12 4 -10 11
-21 17 -25 7 -5 7 -8 -1 -8 -14 0 -18 -32 -6 -43 3 -4 13 -1 22 5 9 7 5 -1 -9
-16 -14 -16 -20 -26 -14 -23 7 4 15 0 18 -9 3 -8 2 -13 -3 -10 -5 3 -12 -1
-15 -10 -3 -8 -2 -13 3 -10 5 3 11 -1 15 -9 3 -8 1 -17 -4 -20 -6 -4 -10 -12
-9 -18 0 -9 2 -9 6 1 2 6 9 12 14 12 6 0 5 -8 -1 -20 -6 -11 -7 -20 -3 -20 4
0 1 -5 -7 -10 -13 -8 -13 -10 1 -10 12 0 16 -8 15 -24 0 -13 -4 -22 -8 -19 -5
2 -8 0 -8 -5 0 -6 7 -13 16 -16 13 -5 14 -9 5 -20 -8 -9 -8 -16 -2 -20 6 -4 7
-14 4 -23 -5 -12 -3 -14 8 -8 11 7 11 5 -1 -10 -8 -10 -10 -16 -4 -12 7 4 15
-3 19 -16 11 -36 12 -57 3 -63 -16 -10 -8 -26 10 -19 13 5 14 4 5 -6 -10 -10
-9 -15 5 -26 14 -11 14 -12 1 -8 -9 4 -16 0 -16 -8 0 -9 8 -13 21 -10 20 4 20
4 -1 -9 l-23 -13 23 -14 c21 -14 21 -13 7 5 -14 18 -14 18 3 5 13 -10 15 -17
6 -27 -8 -10 -8 -14 0 -14 6 0 11 -5 11 -11 0 -5 -6 -7 -12 -3 -9 5 -9 2 1 -9
16 -20 25 -23 15 -4 -8 15 25 -20 46 -48 14 -19 14 -19 -6 -3 -11 10 -25 18
-30 18 -5 0 -1 -5 9 -11 9 -6 15 -15 11 -20 -3 -5 -2 -9 3 -8 22 4 34 -2 27
-13 -5 -8 0 -7 11 2 17 14 18 14 6 -8 -6 -12 -8 -22 -4 -21 25 4 43 -3 43 -18
0 -9 3 -13 7 -10 12 13 32 -27 22 -45 -6 -11 -6 -18 0 -18 5 0 8 -11 6 -25 -2
-21 1 -25 19 -20 11 2 15 2 8 -1 -10 -5 -10 -9 0 -22 11 -13 11 -14 -2 -7 -9
5 -7 -1 5 -15 11 -13 15 -21 9 -17 -6 3 -11 0 -11 -7 0 -8 8 -12 21 -9 16 4
18 2 7 -5 -9 -7 -10 -11 -2 -13 7 -3 13 -11 14 -19 5 -27 23 -51 41 -54 16 -2
21 -16 9 -26 -4 -3 -3 1 2 9 5 9 4 12 -2 8 -11 -7 -10 -48 2 -66 3 -6 8 -20
10 -31 3 -18 1 -19 -18 -9 -18 9 -20 9 -10 -1 13 -14 -1 -55 -16 -45 -13 7
-34 -22 -26 -37 4 -7 -1 -4 -9 6 -12 15 -16 16 -16 5 0 -9 -3 -10 -8 -3 -16
25 -92 49 -77 24 3 -5 12 -7 19 -4 8 3 17 1 21 -5 3 -6 0 -9 -8 -5 -8 3 -18 0
-22 -5 -3 -6 -11 -9 -16 -5 -5 3 -6 10 -3 16 5 7 2 8 -7 3 -11 -6 -12 -5 -1 6
6 7 12 16 12 19 0 10 -42 6 -59 -4 -11 -7 -13 -5 -8 7 3 9 3 16 -1 16 -20 -3
-32 3 -32 16 0 8 -4 15 -10 15 -5 0 -6 -7 -3 -17 4 -10 2 -14 -5 -9 -6 3 -14
2 -17 -4 -4 -6 -3 -10 2 -9 20 3 27 -2 13 -11 -13 -8 -12 -10 3 -10 9 0 17 -5
17 -11 0 -6 9 -8 20 -4 16 5 19 3 13 -12 -4 -12 0 -10 15 7 12 14 21 20 22 15
0 -6 -6 -17 -12 -25 -11 -12 -10 -12 4 -2 13 11 19 10 30 -7 8 -12 17 -19 19
-16 3 2 5 -4 5 -14 0 -10 -6 -18 -13 -18 -7 0 -9 5 -6 10 3 6 1 7 -5 3 -6 -4
-9 -13 -5 -21 4 -11 1 -13 -13 -8 -13 5 -16 3 -11 -10 4 -12 1 -15 -14 -12
-16 3 -19 0 -15 -11 4 -11 -1 -18 -15 -21 -12 -4 -18 -11 -15 -20 4 -9 2 -11
-6 -7 -8 5 -9 1 -5 -12 7 -19 7 -19 -8 0 -14 18 -15 18 -24 -8 -12 -29 -24
-36 -15 -8 5 14 4 14 -4 2 -8 -10 -8 -18 -1 -27 8 -9 6 -11 -10 -8 -14 2 -18
-1 -14 -11 3 -7 9 -11 14 -8 5 3 9 0 9 -5 0 -15 -13 -14 -29 1 -11 10 -13 10
-7 1 4 -7 2 -13 -3 -13 -6 0 -11 -5 -11 -11 0 -5 5 -7 12 -3 7 5 8 3 3 -6 -6
-10 -11 -10 -20 4 -11 15 -13 15 -19 1 -3 -9 -2 -13 4 -10 6 3 10 1 10 -4 0
-12 36 -15 43 -3 2 4 2 2 1 -5 -2 -7 1 -15 6 -18 6 -4 10 1 10 9 0 8 5 18 10
21 6 4 10 3 9 -2 -3 -20 2 -23 22 -12 15 8 19 8 15 0 -11 -18 5 -13 21 7 8 9
12 11 8 5 -8 -16 17 -17 33 -1 9 9 13 7 18 -5 3 -9 11 -17 16 -17 6 0 5 7 -3
16 -11 14 -10 15 7 12 13 -2 18 2 16 14 -1 9 3 20 9 24 8 4 9 3 5 -4 -4 -7 -2
-12 4 -12 6 0 9 -4 5 -9 -3 -6 6 -8 22 -5 27 5 27 5 8 -10 l-20 -16 20 6 c20
6 20 5 1 -10 -23 -19 -17 -20 18 -5 14 7 23 16 19 22 -3 6 -1 7 5 3 6 -3 13
-2 17 3 8 14 36 1 28 -13 -3 -6 -1 -6 8 1 16 15 39 17 39 3 0 -5 -7 -7 -15 -4
-11 5 -13 2 -9 -9 3 -9 12 -13 21 -10 10 4 14 2 9 -5 -3 -6 -2 -14 4 -17 6 -4
9 -1 8 7 -2 7 5 12 14 12 10 -1 14 4 11 12 -4 10 -9 11 -18 4 -8 -7 -12 -6
-12 4 0 18 21 14 49 -10 l22 -19 -16 26 c-13 20 -14 26 -3 26 8 0 12 -4 9 -9
-3 -4 2 -11 10 -14 9 -3 13 -11 9 -17 -4 -7 0 -8 12 -3 14 5 16 4 7 -7 -9 -10
-8 -14 3 -14 8 0 15 5 15 10 0 6 3 8 6 5 3 -4 1 -16 -6 -27 -6 -12 -7 -21 -3
-20 23 4 43 -2 38 -11 -3 -5 -1 -10 5 -10 7 0 10 7 6 15 -3 9 0 15 10 15 9 0
12 -5 8 -13 -4 -6 2 -4 14 6 11 11 26 16 31 12 6 -3 14 0 17 9 3 8 12 17 20
20 10 4 12 2 8 -6 -5 -7 -1 -9 12 -6 16 4 20 0 19 -23 0 -15 -3 -25 -7 -23 -4
2 -9 0 -13 -6 -3 -5 -19 -8 -36 -6 -22 3 -29 0 -25 -10 3 -9 0 -11 -11 -7 -11
4 -14 2 -9 -5 5 -8 2 -10 -8 -6 -9 3 -16 11 -16 18 0 6 -5 4 -10 -4 -6 -10
-10 -11 -10 -2 0 6 -4 12 -10 12 -5 0 -7 -7 -4 -15 4 -8 1 -15 -6 -15 -6 0 -9
4 -6 9 3 5 -5 16 -19 25 -18 12 -26 13 -31 3 -4 -6 -4 -9 1 -5 10 9 35 -10 35
-26 0 -6 -5 -4 -11 4 -8 11 -12 12 -16 3 -2 -7 -9 -13 -14 -13 -6 0 -8 4 -4 9
3 5 1 12 -5 16 -5 3 -10 0 -10 -8 0 -18 -38 -15 -52 4 -8 11 -9 11 -4 -3 7
-23 -10 -23 -23 -1 -7 12 -10 13 -11 4 0 -7 -6 -11 -14 -8 -10 4 -13 1 -9 -9
3 -7 0 -14 -6 -14 -6 0 -11 6 -11 13 0 8 -4 7 -10 -3 -8 -12 -10 -12 -10 5 -1
19 -1 19 -11 2 -9 -15 -13 -16 -27 -5 -12 10 -14 10 -8 0 4 -6 3 -12 -3 -12
-5 0 -12 8 -14 18 -4 13 -5 14 -6 1 -1 -10 -10 -15 -31 -13 -21 1 -33 -4 -40
-17 -8 -15 -7 -17 5 -13 8 3 13 9 11 13 -3 4 4 7 15 7 19 0 19 -1 3 -13 -10
-7 -21 -13 -24 -13 -4 0 -7 -7 -7 -15 0 -18 33 -20 41 -2 3 6 3 2 0 -10 -3
-13 -1 -23 5 -23 6 0 11 7 11 16 0 8 5 12 10 9 6 -4 8 -11 5 -16 -3 -5 1 -6
10 -3 12 5 13 9 4 20 -6 8 -8 14 -4 14 4 0 14 -8 21 -17 8 -11 13 -13 14 -6 0
7 7 10 17 6 9 -4 14 -2 10 3 -3 5 3 10 14 10 10 0 19 -3 19 -6 0 -4 7 -7 15
-7 12 0 12 3 2 16 -9 12 -5 11 17 -3 23 -15 28 -16 23 -3 -7 19 21 17 33 -2 6
-11 9 -11 13 0 4 12 7 11 16 -1 9 -13 11 -12 11 3 0 14 4 16 18 9 9 -5 23 -7
31 -4 9 3 11 0 7 -9 -4 -8 2 -3 14 11 12 14 19 20 16 13 -12 -23 25 -31 62
-13 34 17 37 17 48 1 12 -15 13 -15 19 2 7 17 8 17 21 0 8 -10 13 -13 12 -8
-2 6 2 10 7 10 6 0 9 -4 7 -8 -1 -5 3 -5 10 -1 16 10 37 15 61 15 10 0 30 4
43 10 17 6 23 6 19 -1 -3 -6 -2 -10 4 -10 5 0 15 8 21 18 9 14 10 13 4 -7 -5
-18 -3 -22 7 -15 22 13 90 12 85 -2 -3 -9 3 -10 24 -4 16 5 34 11 39 14 5 4
13 1 17 -5 4 -7 3 -9 -4 -5 -6 3 -13 3 -16 -2 -2 -4 6 -8 19 -8 13 0 21 4 18
10 -4 5 1 7 10 3 19 -7 32 8 16 19 -8 5 -9 3 -4 -6 6 -9 4 -11 -4 -6 -9 6 -9
12 2 24 8 10 12 24 10 32 -4 13 -3 13 6 0 5 -8 7 -18 5 -22 -3 -4 0 -8 5 -8 6
0 11 10 12 23 0 12 3 16 6 9 2 -6 9 -10 14 -7 5 4 6 -2 2 -12 -3 -10 -3 -15 1
-11 5 4 19 3 32 -2 19 -8 22 -6 18 8 -5 14 -4 15 5 2 6 -8 11 -11 11 -6 0 5 8
2 19 -8 11 -10 26 -14 37 -10 15 5 16 4 4 -5 -13 -9 -13 -12 -1 -23 10 -9 12
-10 7 -1 -5 9 -2 11 8 7 9 -3 14 -9 11 -13 -2 -4 18 -7 44 -7 39 1 48 -2 44
-14 -3 -8 4 -4 15 10 18 22 20 22 19 5 -1 -14 4 -20 19 -19 11 0 21 -5 21 -12
0 -7 -3 -11 -7 -9 -4 2 -7 -2 -7 -9 0 -7 6 -13 13 -13 7 0 11 4 8 9 -3 4 0 8
6 8 6 0 8 5 4 12 -4 7 -3 8 5 4 6 -4 9 -11 7 -15 -3 -4 1 -8 9 -8 8 0 12 4 9
9 -5 8 -2 9 34 12 9 1 23 5 31 10 9 6 12 5 8 0 -3 -6 -2 -16 4 -24 7 -12 9 -9
9 10 0 20 2 22 10 10 5 -8 10 -11 10 -6 0 6 7 1 16 -10 8 -10 13 -14 10 -8 -3
6 2 20 10 30 13 16 15 16 10 2 -3 -10 -1 -20 5 -23 5 -4 8 -1 7 7 -2 7 3 12
10 10 8 -1 11 2 6 9 -5 9 -2 10 9 6 11 -4 17 -1 17 7 0 17 27 29 36 15 4 -6
15 -4 31 6 13 9 31 14 38 11 19 -7 38 17 24 31 -8 8 -6 11 7 10 11 -1 18 4 16
11 -1 8 2 11 8 7 8 -5 8 -11 0 -20 -8 -10 -8 -15 1 -21 8 -4 9 -3 5 4 -4 7 3
14 19 18 13 3 23 9 21 13 -7 11 38 8 46 -3 5 -7 8 -6 8 2 0 7 4 11 9 7 5 -3
13 0 17 6 4 8 3 9 -4 5 -7 -4 -12 -2 -12 4 0 8 10 9 29 5 30 -6 50 8 30 21 -8
4 -9 3 -5 -4 4 -7 3 -12 -2 -12 -14 0 -22 27 -16 47 5 15 4 16 -5 3 -6 -8 -11
-12 -11 -8 0 4 -16 0 -36 -8 -35 -14 -36 -14 -30 3 4 9 4 14 0 10 -4 -4 -19 0
-33 9 l-26 15 25 -22 c21 -18 21 -21 5 -15 -11 4 -22 8 -25 9 -3 1 -6 -2 -8
-8 -2 -5 -10 -17 -18 -26 -8 -9 -12 -19 -9 -22 3 -4 -1 -3 -7 3 -16 14 -31 13
-22 -2 4 -7 3 -8 -5 -4 -6 4 -9 12 -6 17 4 5 -2 9 -12 10 -15 0 -14 2 4 9 12
5 20 16 19 25 -4 24 -28 36 -45 22 -10 -8 -13 -8 -8 -1 4 7 0 14 -8 18 -8 3
-14 2 -12 -2 1 -4 -2 -7 -8 -7 -5 0 -9 3 -8 7 2 4 -4 5 -12 2 -17 -7 -20 -24
-5 -24 6 0 10 -5 10 -11 0 -5 -4 -8 -9 -5 -4 3 -17 -4 -27 -16 -19 -21 -19
-21 4 -9 15 8 22 8 22 1 0 -6 4 -9 8 -6 5 3 9 -1 9 -9 0 -10 -5 -11 -19 -4
-10 5 -18 6 -17 2 3 -19 -2 -23 -14 -11 -17 17 -16 55 1 54 20 -1 26 60 7 68
-8 3 -17 1 -20 -4 -9 -14 -42 -12 -48 3 -4 8 -6 6 -6 -4 -1 -9 9 -20 21 -26
19 -8 20 -10 4 -16 -10 -4 -15 -3 -11 3 3 6 1 10 -5 10 -6 0 -15 10 -20 23 -5
13 -9 16 -10 7 -1 -10 -4 -9 -10 5 -8 18 -9 18 -9 2 -1 -16 -3 -16 -23 2 -25
24 -38 19 -33 -10 3 -15 0 -19 -10 -15 -19 7 -19 1 1 -18 10 -10 11 -16 4 -16
-7 0 -10 -6 -7 -14 3 -8 -1 -17 -9 -20 -9 -3 -12 -1 -9 4 9 15 -39 12 -54 -3
-8 -7 -11 -7 -8 -1 4 7 -3 12 -19 12 -16 0 -21 -3 -14 -8 9 -5 9 -9 1 -14 -6
-4 -11 -4 -11 1 0 4 -5 1 -10 -7 -6 -10 -10 -11 -10 -2 0 6 -7 12 -16 12 -8 0
-12 5 -9 10 5 8 12 7 23 -1 10 -6 5 0 -10 14 -24 22 -25 27 -12 38 11 9 12 14
4 19 -8 5 -6 9 5 13 10 4 14 3 9 -4 -4 -8 1 -9 15 -4 14 4 21 3 19 -5 -2 -7 5
-14 14 -15 15 -3 16 0 7 17 -8 14 -8 18 0 14 5 -4 17 5 26 18 9 14 26 28 36
31 16 5 18 9 8 21 -10 12 -9 13 5 8 12 -5 15 -2 9 12 -5 14 -3 16 13 10 15 -6
17 -5 7 5 -7 7 -13 17 -13 22 0 4 6 5 13 2 6 -4 4 0 -5 7 -15 13 -15 15 0 25
14 9 13 11 -10 9 -32 -1 -31 0 -17 -29 8 -19 8 -20 -3 -7 -7 8 -24 16 -38 17
-14 1 -19 -1 -12 -3 17 -8 15 -24 -2 -24 -10 0 -13 -7 -11 -20 2 -11 0 -18 -4
-15 -5 3 -11 -2 -15 -10 -3 -8 -13 -15 -21 -15 -9 0 -14 -4 -11 -8 3 -5 -1 -9
-8 -9 -8 0 -13 7 -11 16 1 9 -3 23 -9 31 -9 13 -9 13 5 3 14 -11 16 -9 17 15
1 15 3 36 5 47 3 11 -1 24 -7 28 -6 5 0 5 13 2 18 -6 22 -4 15 6 -12 20 -14
40 -3 33 5 -3 6 -11 3 -17 -4 -7 -3 -8 2 -4 5 5 9 12 9 15 0 4 4 13 8 19 5 8
3 12 -5 10 -7 -2 -10 -2 -5 0 4 3 4 9 1 15 -4 5 4 5 16 -2 21 -11 22 -10 16 6
-6 15 -5 16 5 7 10 -10 9 -15 -1 -27 -10 -13 -9 -17 4 -22 9 -3 13 -10 10 -15
-3 -5 0 -9 7 -9 9 0 9 -3 0 -14 -8 -9 -8 -16 -2 -20 5 -4 12 -2 16 3 3 6 11 8
18 6 7 -3 19 0 27 5 12 8 13 13 3 29 -7 11 -10 27 -7 35 3 9 -4 19 -18 27 -13
7 -24 12 -25 11 -9 -6 -22 0 -26 11 -3 8 1 14 9 14 7 0 10 -5 7 -10 -4 -6 -1
-7 7 -2 9 6 11 4 5 -5 -6 -9 -4 -11 4 -6 9 6 9 12 -3 24 -10 12 -12 22 -5 34
8 14 7 16 -6 12 -11 -5 -14 -2 -9 10 3 9 11 13 16 10 6 -4 5 3 -1 15 -10 18
-9 20 6 15 17 -5 17 -5 1 6 -9 6 -15 17 -11 25 3 9 0 21 -6 28 -6 7 -11 28
-13 45 -1 18 -6 32 -11 32 -5 0 -5 10 -2 23 5 18 4 19 -5 7 -10 -12 -11 -11
-7 7 3 13 1 23 -4 23 -5 0 -9 -5 -9 -12 0 -6 -3 -8 -6 -5 -4 4 -1 13 5 21 9
11 9 16 0 22 -8 5 -9 3 -4 -6 5 -8 4 -11 -3 -7 -5 4 -8 16 -5 27 4 14 0 20
-11 20 -9 0 -16 4 -16 9 0 5 8 8 18 6 9 -1 11 0 5 2 -7 3 -13 9 -13 14 0 6 -4
8 -9 5 -5 -4 -7 3 -4 14 3 13 0 20 -8 20 -11 0 -11 2 1 10 8 5 10 10 4 10 -7
0 -15 7 -18 16 -4 10 -2 13 7 9 6 -4 4 0 -5 8 -21 16 -24 31 -5 22 6 -4 4 0
-5 8 -10 8 -15 17 -11 20 3 4 -1 7 -11 7 -9 0 -14 4 -11 10 6 10 -7 14 -34 11
-7 -2 -10 2 -6 9 5 9 1 10 -14 5 -17 -5 -20 -3 -14 11 4 10 2 15 -3 11 -6 -3
-16 -2 -24 3 -9 5 -19 5 -27 -2 -16 -13 -17 -3 -1 25 10 20 10 21 -6 8 -14
-12 -16 -12 -10 4 6 14 4 16 -7 10 -11 -6 -12 -5 -1 6 6 7 12 18 12 23 0 6 -5
4 -10 -4 -7 -11 -10 -11 -10 -2 0 7 -4 11 -9 7 -6 -3 -8 4 -6 15 2 12 -2 23
-10 27 -8 3 -15 9 -15 15 0 5 6 6 13 2 8 -5 8 -2 -2 9 -16 20 -25 23 -15 5 4
-7 3 -10 -1 -5 -5 4 -10 17 -12 28 -2 11 -12 30 -24 42 -19 21 -20 21 -14 2 6
-18 5 -18 -5 -2 -6 9 -8 22 -4 29 5 8 2 9 -11 5 -14 -6 -16 -3 -12 13 5 18 3
19 -11 8 -9 -7 -13 -8 -9 -2 4 7 -1 15 -10 18 -12 5 -13 10 -5 18 13 13 4 40
-11 31 -6 -4 -8 0 -4 10 4 12 1 17 -11 17 -10 0 -13 3 -7 8 14 9 12 38 -2 35
-6 -1 -9 6 -6 17 3 12 0 20 -6 20 -7 0 -9 -5 -5 -12 4 -6 3 -8 -3 -5 -5 3 -9
16 -7 29 1 13 3 27 3 31 1 5 5 5 11 2 6 -3 7 1 4 9 -3 9 -9 14 -13 11 -4 -2
-8 2 -8 10 0 8 5 11 10 8 7 -4 8 1 3 13 -13 33 -15 53 -6 59 5 3 7 -4 5 -16
-2 -12 -1 -18 3 -15 4 4 7 13 7 19 1 7 7 11 15 9 8 -2 11 0 7 5 -5 4 -14 8
-20 8 -7 0 -13 16 -15 35 -2 19 -9 41 -15 49 -9 11 -9 13 -1 8 7 -4 15 0 18 9
4 10 2 13 -6 8 -7 -4 -8 -3 -4 5 4 7 16 9 27 6 14 -5 20 -2 18 7 -3 24 1 38
11 38 5 0 6 -8 3 -17 -6 -15 -5 -16 9 -3 11 11 12 17 4 22 -6 4 -11 18 -11 30
-1 13 -4 29 -9 36 -7 12 -4 12 15 1 22 -11 23 -11 10 4 -7 10 -10 17 -6 17 4
0 1 7 -6 17 -13 15 -12 15 11 3 24 -13 24 -12 10 5 -12 15 -12 17 -1 10 11 -6
13 -4 8 8 -3 9 -3 16 1 16 23 -4 32 4 32 27 0 17 -4 23 -12 18 -9 -5 -8 -2 1
9 12 15 12 17 -4 10 -14 -5 -17 -3 -13 9 7 16 -17 18 -42 3 -12 -7 -13 -6 -4
6 6 8 10 22 9 32 -2 9 1 15 6 11 5 -3 7 -9 4 -14 -3 -5 -1 -11 4 -15 6 -3 8 4
6 15 -6 29 15 72 30 62 6 -4 2 1 -8 11 -19 17 -19 17 4 17 18 0 20 3 10 9 -7
5 -11 13 -7 19 3 6 -2 15 -11 21 -10 6 -12 11 -5 11 6 0 12 7 12 16 0 9 5 12
13 8 10 -6 10 -4 0 7 -17 18 -16 34 1 20 11 -9 12 -6 9 16 -2 16 -5 34 -5 40
-1 10 -4 10 -16 0 -13 -10 -14 -8 -7 12 6 19 4 23 -8 18 -11 -4 -14 -2 -10 9
6 17 15 18 31 4 9 -7 9 -7 2 2 -12 15 -13 41 -2 34 7 -4 9 31 3 53 -1 2 -9 -3
-18 -10 -11 -10 -14 -10 -9 -1 4 7 1 12 -9 12 -9 0 -14 -4 -11 -8 2 -4 -6 -8
-18 -8 -12 0 -23 6 -23 13 0 15 14 18 19 4 2 -5 12 -3 23 6 16 12 16 14 3 10
-22 -8 -34 11 -18 26 10 9 11 9 6 0 -5 -8 -2 -11 7 -7 23 8 17 35 -7 29 -17
-5 -16 -3 4 9 14 9 21 15 16 16 -5 0 -3 7 4 16 11 12 11 15 -1 12 -8 -2 -13 3
-11 10 1 6 -2 12 -8 12 -14 0 -13 -13 2 -28 9 -9 9 -12 0 -12 -13 0 -13 1 -17
37 -1 12 1 21 4 18 4 -2 7 5 7 15 0 10 -3 17 -6 15 -3 -2 -12 0 -20 6 -8 5
-10 9 -4 9 5 0 10 11 10 24 0 17 -4 22 -15 18 -13 -4 -13 -2 2 15 14 16 14 20
2 20 -8 0 -12 -4 -9 -9 3 -4 1 -8 -4 -8 -6 0 -10 10 -9 23 0 12 -4 31 -8 41
-7 15 -5 18 6 12 8 -4 6 -1 -3 7 -10 8 -18 19 -18 26 0 6 -8 11 -17 12 -15 0
-15 2 2 9 11 5 14 9 7 9 -7 1 -10 6 -7 11 4 6 11 8 16 5 5 -3 6 2 2 11 -5 13
-3 15 7 9 9 -5 11 -4 6 4 -6 9 -12 9 -24 -1 -15 -12 -16 -11 -3 4 15 20 7 53
-10 42 -8 -4 -9 -3 -5 5 4 6 12 9 17 6 5 -4 9 -1 9 4 0 6 -4 11 -9 11 -17 0
-19 39 -2 52 14 12 15 11 2 -4 -16 -21 -5 -24 15 -4 10 10 10 16 2 18 -6 2
-12 14 -13 25 -1 15 3 19 14 15 14 -5 14 -4 1 10 -8 9 -18 14 -22 11 -4 -2 -5
3 -2 11 3 9 1 16 -6 16 -6 0 -8 5 -5 10 3 6 2 10 -3 10 -6 0 -12 7 -15 14 -4
9 -1 14 6 12 7 -1 9 -1 4 1 -4 3 -5 9 -2 14 4 5 -1 6 -10 3 -9 -4 -15 -3 -14
2 3 20 -2 34 -12 34 -5 0 -7 -5 -3 -12 4 -7 3 -8 -5 -4 -9 6 -9 11 1 24 7 9 8
13 3 10 -6 -4 -21 0 -35 9 -14 8 -17 12 -7 9 21 -7 23 10 1 18 -9 4 -14 13
-10 22 3 8 2 13 -2 11 -10 -7 -32 19 -24 28 4 4 0 5 -8 3 -8 -2 -14 3 -13 9 2
7 0 12 -5 12 -21 -4 -42 2 -42 12 0 5 5 7 11 3 8 -5 8 -1 0 14 -6 11 -18 22
-27 26 -9 4 -14 12 -10 22 3 8 2 13 -2 11 -4 -3 -12 1 -19 8 -10 11 -10 15 0
18 7 3 4 6 -6 6 -11 1 -15 5 -11 13 5 8 2 9 -9 5 -9 -3 -19 -1 -23 5 -4 7 -3
8 4 4 7 -4 12 -2 12 3 0 6 -7 11 -17 11 -9 0 -14 3 -10 6 6 7 -7 21 -38 42
-57 36 -79 54 -60 48 20 -6 20 -6 1 9 -11 8 -23 15 -28 15 -4 0 -8 5 -8 11 0
5 4 8 8 5 4 -2 14 -1 22 4 9 5 19 5 27 -2 7 -6 13 -8 13 -5 0 3 14 -8 31 -24
17 -16 40 -29 51 -29 10 0 17 -4 14 -9 -4 -5 3 -7 14 -4 12 3 20 0 20 -6 0 -7
-4 -9 -10 -6 -5 3 -10 1 -10 -4 0 -14 6 -14 32 0 17 9 20 9 15 -3 -3 -8 1 -15
9 -15 7 0 11 4 8 9 -3 5 -2 8 3 7 21 -4 33 3 43 21 9 16 8 19 -6 13 -12 -4
-15 -3 -10 5 4 7 1 12 -9 12 -10 0 -13 -5 -9 -12 4 -7 3 -8 -4 -4 -8 5 -9 13
-3 25 8 14 6 17 -10 16 -11 -1 -25 -8 -30 -16 -8 -11 -9 -9 -5 7 4 14 2 21 -8
21 -9 0 -13 -4 -10 -9 3 -4 0 -8 -5 -8 -6 0 -11 5 -11 11 0 8 -4 8 -14 0 -11
-9 -15 -8 -20 4 -4 11 -2 14 7 9 6 -4 2 4 -10 17 -18 19 -25 21 -35 11 -11
-11 -9 -12 7 -6 17 7 18 6 5 -8 -14 -15 -16 -14 -27 7 -8 15 -19 22 -31 18
-10 -2 -24 3 -31 11 -8 9 -10 16 -5 16 4 0 -1 7 -12 15 -12 10 -14 14 -4 12 8
-2 12 -2 8 0 -4 3 -10 4 -13 4 -3 -1 -12 4 -19 11 -11 10 -11 16 -2 27 8 12 8
13 -1 7 -16 -9 -18 24 -3 42 7 9 7 9 -2 2 -20 -17 -30 -11 -23 13 4 15 4 18
-3 8 -11 -16 -36 -5 -26 11 4 7 2 8 -5 4 -6 -4 -8 -12 -5 -18 5 -7 2 -8 -5 -4
-7 5 -10 14 -7 22 3 8 1 14 -5 14 -6 0 -7 6 -3 13 6 9 5 9 -8 -1 -12 -10 -17
-10 -25 0 -21 27 -24 42 -4 18 l22 -25 -12 28 c-7 15 -19 27 -26 27 -8 0 -12
4 -8 9 3 5 1 12 -4 16 -6 3 -8 -4 -6 -17 3 -12 -1 -26 -8 -30 -9 -6 -5 -14 13
-30 15 -13 18 -19 8 -15 -10 3 -20 2 -23 -3 -4 -6 1 -10 10 -10 9 0 13 -5 10
-10 -4 -6 -11 -7 -17 -4 -7 5 -8 2 -2 -7 14 -24 16 -51 2 -43 -8 5 -7 0 2 -11
9 -11 10 -16 3 -11 -9 5 -13 0 -13 -14 0 -14 -4 -19 -12 -14 -7 5 -9 2 -5 -9
3 -8 -1 -21 -9 -27 -10 -9 -14 -9 -14 -1 0 6 5 11 11 11 5 0 7 5 3 11 -4 7 -9
7 -13 2 -12 -18 -41 -23 -41 -8 0 8 3 14 8 13 4 0 15 2 25 7 13 5 15 10 7 15
-8 5 -6 12 6 25 17 17 17 17 -6 10 -25 -7 -25 -7 -5 11 22 20 23 59 2 48 -7
-3 -3 2 7 10 17 14 17 16 3 16 -10 0 -14 5 -11 14 3 7 -2 16 -11 20 -10 3 -15
12 -11 21 3 8 2 15 -2 15 -4 0 -8 9 -8 19 0 16 3 18 15 8 12 -10 13 -9 3 10
-16 29 -15 36 4 29 14 -5 15 -4 4 9 -7 8 -17 12 -22 9 -6 -4 -5 4 2 16 8 15 8
20 1 16 -7 -4 -11 1 -11 13 0 11 -5 23 -12 27 -6 4 -8 3 -4 -4 3 -6 3 -13 -2
-16 -9 -5 -8 86 1 101 4 6 -1 10 -11 9 -10 0 -16 6 -16 17 1 9 -2 17 -7 17 -5
0 -9 -8 -9 -17 0 -15 -2 -16 -10 -3 -9 14 -15 7 -10 -15 1 -5 -8 0 -20 13 -24
25 -26 26 -35 11z m89 -311 c-3 -4 2 -8 12 -8 13 0 14 -3 5 -14 -9 -11 -9 -15
1 -18 7 -3 2 -7 -11 -11 -19 -5 -22 -2 -18 14 3 12 0 22 -9 26 -17 6 -10 20
10 20 8 0 13 -4 10 -9z m196 -68 c-20 -13 -30 -12 -30 1 0 5 4 8 9 4 5 -3 13
0 16 6 4 5 10 8 13 4 4 -3 0 -10 -8 -15z m58 -22 c10 -13 10 -23 2 -38 -12
-22 -30 -27 -30 -8 0 6 -3 9 -6 5 -4 -3 -13 1 -21 9 -8 8 -19 12 -24 9 -5 -4
-6 1 -2 10 6 17 39 34 58 31 6 0 16 -9 23 -18z m-214 -14 c3 -8 2 -12 -4 -9
-6 3 -10 10 -10 16 0 14 7 11 14 -7z m21 -26 c5 4 5 1 1 -5 -4 -8 -2 -13 5
-13 17 0 2 -13 -18 -16 -18 -3 -44 26 -37 38 3 5 13 4 23 -2 10 -5 22 -6 26
-2z m215 -8 c-9 -6 -10 -10 -3 -10 7 0 17 -9 23 -20 9 -16 8 -19 -6 -13 -14 5
-15 3 -4 -18 l13 -24 -23 20 -23 20 14 -22 c12 -20 11 -24 -5 -36 -11 -8 -16
-19 -13 -24 4 -6 -4 -18 -18 -27 -14 -9 -24 -13 -23 -9 2 4 -1 8 -7 8 -5 0
-10 -5 -9 -10 1 -6 -9 -11 -21 -11 -12 0 -22 6 -22 13 0 16 14 17 19 2 2 -6 9
1 16 17 12 24 11 26 -2 14 -22 -17 -20 -6 2 16 9 10 17 22 17 28 1 6 5 10 11
9 5 -1 10 12 10 28 1 17 -2 26 -9 22 -6 -3 -7 -1 -3 5 4 6 13 9 20 6 7 -3 19
2 26 11 7 8 18 15 24 15 6 0 4 -5 -4 -10z m165 -158 c-3 -3 -11 0 -18 7 -9 10
-8 11 6 5 10 -3 15 -9 12 -12z m-440 -111 c-3 -5 -1 -12 5 -16 5 -3 10 2 11
12 0 14 2 15 6 3 3 -8 10 -18 16 -21 5 -4 5 -9 -2 -13 -6 -4 -11 -2 -11 4 0 6
-5 8 -10 5 -6 -4 -8 -10 -6 -14 3 -4 -1 -8 -9 -8 -8 0 -14 3 -13 6 2 19 -4 24
-12 11 -7 -12 -9 -10 -7 7 0 12 4 20 8 17 4 -2 10 0 14 6 3 5 8 10 11 10 3 0
3 -4 -1 -9z m606 -192 c7 -13 7 -19 1 -15 -6 3 -17 -3 -26 -15 -15 -22 -15
-22 -13 -1 0 11 6 20 12 19 5 -1 9 6 7 16 -4 23 5 22 19 -4z m-6 -38 c-3 -5
-1 -12 5 -16 15 -9 1 -27 -16 -21 -8 3 -14 0 -14 -6 0 -6 -3 -9 -6 -6 -5 6 24
58 33 58 2 0 2 -4 -2 -9z m25 -61 c0 -5 -2 -10 -4 -10 -3 0 -8 5 -11 10 -3 6
-1 10 4 10 6 0 11 -4 11 -10z m-10 -20 c8 -5 11 -10 5 -10 -5 0 -17 5 -25 10
-8 5 -10 10 -5 10 6 0 17 -5 25 -10z m-1051 -37 c8 -16 8 -24 -1 -29 -6 -4 -8
-3 -5 3 4 6 0 13 -8 17 -8 3 -12 12 -9 21 7 18 7 18 23 -12z m14 -48 c-3 -9
-8 -14 -10 -11 -3 3 -2 9 2 15 9 16 15 13 8 -4z m-3 -49 c0 -2 -8 -10 -17 -17
-16 -13 -17 -12 -4 4 13 16 21 21 21 13z m220 -281 c5 3 11 2 14 -3 2 -4 -4
-9 -15 -9 -12 -1 -19 4 -18 15 0 11 2 12 6 4 2 -6 9 -10 13 -7z m-33 -30 c0
-8 -4 -12 -9 -9 -5 3 -6 10 -3 15 9 13 12 11 12 -6z m896 -177 c-4 -8 10 -12
32 -9 6 0 3 -4 -6 -11 -15 -10 -14 -13 3 -30 12 -12 18 -31 17 -56 -2 -56 0
-64 14 -56 6 4 9 4 5 -1 -4 -4 -3 -14 3 -22 9 -10 8 -13 -2 -14 -8 0 -5 -4 6
-9 11 -5 14 -9 8 -9 -15 -1 -18 -31 -3 -31 5 0 9 -3 9 -7 -3 -20 2 -34 10 -29
11 7 9 -13 -2 -32 -11 -17 -30 -4 -22 17 4 11 3 13 -5 5 -7 -7 -8 -19 -1 -37
8 -21 7 -25 -4 -20 -8 3 -13 8 -11 12 2 3 0 15 -4 26 -5 13 -2 27 9 40 13 16
11 15 -10 -2 -14 -13 -29 -23 -35 -23 -5 0 -2 5 6 10 13 8 13 11 1 22 -11 11
-13 11 -6 -1 6 -11 4 -13 -8 -8 -10 3 -17 2 -17 -3 0 -6 -5 -10 -11 -10 -5 0
-7 6 -3 13 5 9 4 9 -6 0 -11 -10 -17 -10 -29 0 -12 8 -11 6 2 -9 16 -20 16
-21 -4 -19 -23 2 -41 24 -32 39 3 5 1 6 -5 2 -6 -3 -13 -2 -16 3 -3 5 4 11 16
14 19 5 20 8 7 24 -7 10 -10 15 -5 11 5 -4 16 0 25 9 15 15 16 15 20 -2 2 -15
7 -11 19 16 22 51 24 63 5 48 -12 -11 -14 -10 -11 3 1 10 -6 24 -17 33 -11 9
-14 14 -7 10 6 -3 12 -2 12 2 0 5 -6 15 -12 22 -11 11 -10 12 1 6 11 -6 13 -4
8 8 -3 10 -2 17 4 17 6 0 5 8 -2 21 -9 17 -8 20 2 14 9 -6 10 -3 5 10 -5 15
-4 16 9 5 9 -7 15 -9 14 -4 -3 20 2 24 15 12 8 -7 12 -16 9 -20z m67 -138 c0
-5 -5 -10 -11 -10 -5 0 -7 5 -4 10 3 6 8 10 11 10 2 0 4 -4 4 -10z m-1267 -36
c-7 -3 -9 -13 -6 -22 4 -14 3 -14 -5 -2 -12 16 -7 30 11 29 9 0 9 -2 0 -5z
m1462 -114 c3 -5 1 -10 -4 -10 -6 0 -11 5 -11 10 0 6 2 10 4 10 3 0 8 -4 11
-10z m-218 -53 c-1 -6 9 -16 21 -23 17 -8 20 -13 10 -17 -7 -3 -2 -6 12 -6 14
-1 21 -5 15 -9 -14 -10 -17 -32 -4 -32 8 0 7 -6 -2 -17 -8 -9 -9 -14 -3 -10 7
4 14 0 18 -8 3 -8 -3 -19 -12 -24 -14 -8 -14 -10 -2 -11 13 0 13 -2 1 -9 -11
-7 -12 -13 -3 -24 9 -11 8 -13 -6 -11 -45 6 -60 17 -64 45 -4 24 -1 29 11 24
11 -4 10 0 -5 16 -10 12 -13 19 -6 15 18 -10 9 33 -9 45 -11 7 -10 9 6 10 17
1 16 2 -5 9 -14 4 -19 8 -11 9 11 1 11 4 1 16 -11 13 -10 14 5 8 14 -5 17 -3
12 10 -4 11 -2 14 8 11 8 -3 13 -11 12 -17z m-1063 -92 c-4 -8 -11 -12 -16 -9
-6 4 -5 10 3 15 19 12 19 11 13 -6z m1084 -122 c2 -7 -1 -13 -8 -13 -6 0 -9 4
-5 9 3 5 -3 12 -12 15 -15 4 -15 5 1 3 11 -1 21 -8 24 -14z m31 -7 c9 -11 9
-16 0 -22 -8 -4 -9 -3 -5 4 4 7 2 12 -3 12 -6 0 -11 5 -11 10 0 14 5 13 19 -4z
m-15 -32 c3 -8 2 -12 -4 -9 -6 3 -10 10 -10 16 0 14 7 11 14 -7z m81 -131 c4
-13 3 -14 -9 -4 -16 14 -36 7 -36 -12 0 -7 4 -6 10 3 9 13 11 13 20 0 5 -9 6
-16 0 -18 -5 -2 -7 -9 -4 -15 3 -8 -5 -13 -19 -15 -20 -1 -24 3 -23 26 1 15 7
31 14 35 7 5 10 12 7 17 -3 4 4 6 14 3 11 -3 22 -12 26 -20z m-1294 -70 c13
-16 12 -17 -3 -4 -10 7 -18 15 -18 17 0 8 8 3 21 -13z m1284 -9 c-9 -7 -24
-10 -32 -7 -18 7 -2 19 27 19 19 0 20 -1 5 -12z m-1282 -21 c-7 -2 -19 -2 -25
0 -7 3 -2 5 12 5 14 0 19 -2 13 -5z m321 -71 c2 -4 -4 -8 -14 -8 -10 0 -16 4
-14 8 3 4 9 8 14 8 5 0 11 -4 14 -8z m521 -342 c3 -6 -1 -7 -9 -4 -18 7 -21
14 -7 14 6 0 13 -4 16 -10z m40 -49 c1 -11 -2 -18 -7 -15 -4 3 -5 -2 -2 -10 3
-9 11 -13 17 -9 5 3 7 1 4 -4 -4 -6 0 -16 8 -23 12 -10 13 -16 3 -27 -6 -8 -7
-13 -2 -12 21 4 28 -2 14 -11 -9 -6 -11 -10 -3 -10 7 0 10 -7 6 -17 -5 -12 -3
-14 8 -8 11 7 11 5 -1 -10 -9 -11 -10 -16 -2 -11 7 4 12 2 12 -4 0 -6 5 -8 10
-5 6 3 10 0 10 -9 0 -8 -6 -17 -12 -20 -7 -3 -4 -4 6 -3 10 1 21 -4 24 -12 3
-9 0 -11 -9 -6 -8 4 -4 -2 9 -15 13 -12 21 -25 17 -28 -3 -4 -10 0 -15 8 -7
11 -10 11 -10 2 0 -7 7 -15 15 -18 17 -7 21 -44 5 -44 -5 0 -10 6 -10 14 0 8
-7 16 -15 19 -8 4 -12 15 -10 27 2 11 0 18 -6 15 -5 -4 -7 -10 -4 -15 3 -5 0
-12 -6 -16 -8 -4 -9 -3 -5 4 4 7 2 12 -4 12 -6 0 -9 4 -5 9 3 6 -3 14 -12 20
-14 8 -15 10 -3 11 13 0 13 2 0 9 -8 6 -18 7 -23 4 -5 -3 -3 5 3 18 7 13 9 21
5 17 -8 -7 -37 16 -35 28 1 4 -4 11 -12 16 -10 8 -9 9 4 4 12 -3 15 -1 11 10
-3 7 -9 14 -13 14 -4 0 -11 7 -14 16 -3 8 -2 13 3 9 16 -9 19 19 4 37 -13 14
-12 18 5 27 14 8 19 17 15 33 -5 19 -3 21 7 11 8 -7 14 -22 15 -32z m89 -317
c4 -10 12 -14 22 -10 8 3 23 -2 32 -11 16 -16 16 -16 0 -10 -12 4 -15 2 -11
-8 3 -8 9 -12 14 -9 5 3 9 0 9 -6 0 -6 6 -8 13 -5 6 4 1 -3 -13 -14 -19 -16
-20 -20 -6 -14 15 5 17 3 11 -8 -7 -11 -5 -11 10 1 17 14 18 13 12 -3 -4 -10
-3 -16 2 -12 5 3 12 1 16 -5 3 -5 -1 -10 -9 -10 -18 0 -21 -16 -6 -25 6 -4 7
-12 4 -18 -4 -8 -2 -7 7 1 12 11 12 14 -1 23 -13 9 -13 10 0 6 8 -2 14 -12 13
-21 -1 -13 4 -16 18 -13 10 3 19 1 19 -5 0 -5 4 -6 10 -3 6 4 7 -1 3 -12 -6
-16 -5 -16 10 -4 9 7 17 9 17 4 0 -19 38 -53 59 -53 11 0 21 -4 21 -10 0 -5
-8 -7 -17 -4 -14 4 -13 2 2 -7 11 -7 24 -17 28 -23 5 -6 5 0 2 14 l-6 25 20
-25 c18 -22 20 -23 17 -5 -2 11 -1 14 1 7 3 -7 8 -10 13 -7 11 7 7 -29 -5 -37
-6 -5 -5 -8 3 -8 7 0 10 -4 7 -10 -4 -6 1 -7 12 -3 16 6 16 5 4 -10 -11 -14
-11 -17 0 -18 8 -1 18 -1 22 0 5 1 6 -3 2 -9 -3 -6 -11 -7 -17 -4 -6 4 -6 0 1
-13 6 -11 7 -24 3 -28 -4 -5 -2 -5 4 -2 15 8 23 -43 13 -72 -5 -11 -4 -23 2
-26 5 -4 7 -11 4 -16 -4 -5 -1 -9 6 -9 7 0 9 -3 6 -6 -3 -4 -1 -16 5 -28 10
-20 10 -20 -7 -6 -17 14 -18 14 -6 -9 11 -19 11 -22 0 -16 -9 6 -10 3 -6 -10
5 -11 1 -23 -10 -32 -17 -14 -17 -14 2 -9 19 6 19 5 2 -8 -18 -14 -18 -14 2
-21 12 -3 21 -10 21 -15 0 -5 -8 -7 -17 -3 -10 3 -15 3 -11 -1 3 -4 12 -8 20
-10 7 -1 19 -6 27 -10 9 -6 12 -5 7 2 -3 6 -1 14 6 18 7 4 10 4 6 -1 -4 -4 -2
-17 4 -28 9 -17 8 -19 -7 -13 -15 5 -16 4 -6 -8 10 -12 9 -14 -8 -9 -12 3 -18
9 -15 14 9 16 -3 10 -17 -8 -10 -11 -10 -14 -1 -9 6 4 12 2 12 -3 0 -14 -13
-14 -28 1 -7 7 -12 8 -12 3 0 -4 -9 0 -20 10 -11 10 -20 13 -20 7 0 -7 -5 -12
-11 -12 -6 0 -8 9 -3 23 6 19 3 18 -20 -8 -14 -16 -26 -33 -26 -37 0 -3 -10
-4 -22 -1 -17 4 -19 2 -9 -5 11 -8 8 -10 -12 -9 -14 1 -25 7 -24 12 1 6 -4 9
-11 7 -8 -1 -11 2 -8 7 4 5 0 12 -6 15 -7 3 -3 3 10 0 12 -3 22 -1 22 4 0 14
-33 11 -52 -6 -10 -8 -18 -11 -18 -6 0 5 -5 2 -11 -6 -8 -12 -9 -10 -4 8 5 18
2 22 -14 22 -12 0 -21 -5 -21 -11 0 -5 5 -7 10 -4 6 3 10 1 10 -4 0 -13 -3
-13 -24 -5 -9 3 -13 10 -10 15 3 5 1 9 -4 9 -17 0 -22 -13 -9 -29 10 -14 10
-14 -4 -3 -13 10 -19 10 -28 -2 -7 -8 -20 -12 -28 -9 -11 4 -14 2 -9 -5 5 -8
2 -10 -9 -6 -14 6 -14 8 1 19 9 6 14 18 11 26 -4 10 -6 9 -6 -3 -1 -10 -6 -18
-12 -18 -5 0 -9 8 -7 18 1 9 -1 22 -4 28 -4 6 -1 11 7 11 8 0 12 -4 9 -9 -3
-4 -1 -8 5 -8 5 0 14 7 18 15 8 13 12 13 30 -4 15 -14 23 -17 32 -8 8 8 11 8
11 -1 0 -9 6 -9 25 0 14 6 22 14 17 17 -5 3 -11 18 -14 34 -4 22 -3 25 9 16
11 -10 12 -8 7 6 -6 14 -4 16 6 10 10 -6 12 -4 6 10 -5 15 -4 16 8 6 11 -9 16
-9 22 0 5 8 3 9 -6 4 -9 -5 -11 -4 -6 3 4 7 15 12 24 13 12 0 13 2 3 6 -9 4
-10 7 -2 12 16 10 20 125 6 152 l-12 22 -12 -21 c-19 -36 -59 -20 -52 21 1 5
-3 5 -9 2 -6 -4 -9 -14 -5 -24 5 -13 4 -13 -6 -4 -10 10 -9 16 4 31 19 21 23
37 5 26 -7 -4 -8 -3 -4 5 4 6 12 9 17 6 5 -4 9 -1 9 5 0 6 5 8 10 5 6 -3 11
-3 11 2 7 41 4 55 -13 67 -20 15 -32 66 -15 66 5 0 3 8 -4 17 -12 15 -12 16 8
11 14 -4 27 0 35 11 12 14 11 15 -4 2 -12 -9 -18 -10 -18 -2 0 6 -3 10 -7 9
-17 -5 -51 26 -45 40 4 11 1 13 -8 7 -8 -5 -11 -4 -6 3 3 6 -1 17 -9 25 -8 9
-15 21 -15 27 0 6 -4 8 -10 5 -5 -3 -10 -1 -10 4 0 6 3 11 8 11 4 0 7 11 7 24
0 13 -5 22 -11 19 -5 -2 -19 5 -29 17 -10 11 -13 20 -8 20 6 0 14 -7 17 -16z
m132 -330 c1 -9 0 -13 -4 -10 -3 4 -7 14 -8 22 -1 9 0 13 4 10 3 -4 7 -14 8
-22z m-435 -51 c13 -16 12 -17 -3 -4 -10 7 -18 15 -18 17 0 8 8 3 21 -13z m44
-73 c3 -5 -1 -10 -10 -10 -9 0 -13 5 -10 10 3 6 8 10 10 10 2 0 7 -4 10 -10z
m439 -6 c3 -8 2 -12 -4 -9 -6 3 -10 10 -10 16 0 14 7 11 14 -7z m-80 -72 c2
-4 -5 -9 -17 -9 -17 -2 -19 0 -7 7 18 12 18 12 24 2z m-634 -23 c0 -14 -17
-10 -23 5 -4 10 -1 13 9 9 7 -3 14 -9 14 -14z m634 -33 c2 -14 0 -23 -4 -21
-4 3 -7 16 -7 30 0 32 8 26 11 -9z m-231 -142 c4 -7 14 -11 22 -8 10 4 15 0
15 -12 1 -16 3 -15 16 6 11 19 14 20 10 5 -3 -11 -1 -27 5 -35 9 -13 10 -13 8
0 -2 25 1 40 9 40 4 0 7 -18 7 -39 0 -27 -3 -37 -11 -30 -6 5 -13 6 -16 4 -11
-12 -48 -13 -54 -3 -5 7 -2 8 6 3 8 -5 11 -4 6 3 -4 6 -13 9 -20 6 -7 -3 -22
3 -32 13 -11 10 -14 14 -7 9 10 -6 12 -4 7 8 -3 9 -12 16 -20 16 -8 0 -14 5
-14 11 0 6 7 8 16 5 11 -4 15 -2 11 8 -7 18 24 9 36 -10z m14 4 c-3 -8 -6 -5
-6 6 -1 11 2 17 5 13 3 -3 4 -12 1 -19z m410 -70 c-3 -8 -6 -5 -6 6 -1 11 2
17 5 13 3 -3 4 -12 1 -19z m-772 -28 c-5 -15 -3 -18 8 -14 8 3 17 -2 21 -12 5
-14 4 -15 -9 -4 -12 10 -15 10 -16 -1 0 -12 -1 -12 -6 0 -4 11 -7 11 -14 0 -4
-7 -11 -10 -16 -6 -4 5 -1 12 6 16 8 5 10 14 6 21 -5 9 -4 11 3 6 7 -4 12 -2
12 3 0 6 3 11 6 11 3 0 3 -9 -1 -20z m1182 2 c0 -10 -7 -19 -14 -19 -9 0 -10
4 -3 12 8 9 4 12 -15 10 -14 -2 -23 0 -21 4 2 3 16 7 30 9 18 1 24 -3 23 -16z
m-1092 -20 c-3 -3 -11 0 -18 7 -9 10 -8 11 6 5 10 -3 15 -9 12 -12z m1316 -9
c13 -16 12 -17 -3 -4 -17 13 -22 21 -14 21 2 0 10 -8 17 -17z m140 -27 c-6 -7
-7 -17 -3 -21 4 -5 2 -5 -5 -2 -9 6 -10 18 -4 45 1 2 6 0 11 -3 8 -5 8 -11 1
-19z m-76 -27 c4 -11 4 -23 1 -26 -3 -4 -6 2 -6 12 0 15 -2 16 -17 4 -16 -12
-17 -12 -6 2 7 9 10 19 6 22 -3 4 -1 7 5 7 6 0 14 -9 17 -21z m-998 -14 c0 -8
-4 -12 -9 -9 -5 3 -6 10 -3 15 9 13 12 11 12 -6z m398 -126 c-4 -5 -12 -9 -18
-8 -9 0 -8 2 1 6 6 2 9 10 6 15 -4 7 -2 8 5 4 6 -4 9 -12 6 -17z m835 17 c0
-3 -4 -8 -10 -11 -5 -3 -10 -1 -10 4 0 6 5 11 10 11 6 0 10 -2 10 -4z m-1085
-15 c-9 -8 -36 -10 -30 -2 2 4 11 8 20 8 8 0 13 -3 10 -6z m-175 -9 c0 -13
-12 -22 -22 -16 -10 6 -1 24 13 24 5 0 9 -4 9 -8z"/>
<path d="M2763 4352 c1 -14 5 -18 11 -12 7 7 6 14 -1 21 -9 9 -12 7 -10 -9z"/>
<path d="M2540 4326 c0 -2 7 -9 15 -16 9 -7 15 -8 15 -2 0 5 -7 12 -15 16 -8
3 -15 4 -15 2z"/>
<path d="M2761 4286 c-8 -10 -9 -16 -1 -21 6 -4 9 -1 8 7 -2 7 3 12 10 11 6
-2 12 2 12 7 0 14 -16 12 -29 -4z"/>
<path d="M2745 4180 c-3 -6 1 -7 9 -4 18 7 21 14 7 14 -6 0 -13 -4 -16 -10z"/>
<path d="M3206 3047 c3 -10 9 -15 12 -12 3 3 0 11 -7 18 -10 9 -11 8 -5 -6z"/>
<path d="M3157 2935 c-4 -8 -3 -16 1 -19 4 -3 9 4 9 15 2 23 -3 25 -10 4z"/>
<path d="M3210 2760 c0 -5 5 -10 11 -10 5 0 7 5 4 10 -3 6 -8 10 -11 10 -2 0
-4 -4 -4 -10z"/>
<path d="M2940 1760 c0 -5 5 -10 11 -10 5 0 7 5 4 10 -3 6 -8 10 -11 10 -2 0
-4 -4 -4 -10z"/>
<path d="M2918 1683 c7 -3 16 -2 19 1 4 3 -2 6 -13 5 -11 0 -14 -3 -6 -6z"/>
<path d="M3156 1075 c-3 -8 -1 -15 4 -15 6 0 10 7 10 15 0 8 -2 15 -4 15 -2 0
-6 -7 -10 -15z"/>
<path d="M3390 1039 c0 -5 5 -7 10 -4 6 3 10 8 10 11 0 2 -4 4 -10 4 -5 0 -10
-5 -10 -11z"/>
<path d="M3213 794 c0 -7 4 -11 8 -9 11 7 19 -23 12 -42 -5 -13 -2 -15 11 -10
10 4 20 7 22 7 2 0 4 5 4 11 0 8 -6 7 -17 -2 -16 -12 -17 -12 -6 2 9 11 9 19
2 26 -8 8 -7 13 2 18 8 6 10 4 4 -5 -6 -9 -4 -11 5 -5 9 6 11 4 5 -5 -6 -9 -4
-11 5 -5 9 5 11 4 6 -3 -4 -7 -2 -12 4 -12 6 0 8 -6 4 -12 -4 -8 -3 -10 2 -5
5 5 9 12 9 15 0 4 3 12 7 17 4 6 2 17 -4 25 -8 12 -9 12 -4 -2 6 -21 -5 -23
-22 -6 -17 17 -59 18 -59 2z"/>
<path d="M3030 776 c0 -8 6 -17 13 -19 10 -4 10 -6 0 -6 -7 -1 -13 -6 -13 -13
0 -6 9 -3 20 7 15 14 17 21 9 32 -15 17 -29 17 -29 -1z"/>
<path d="M3375 760 c3 -5 8 -10 11 -10 2 0 4 5 4 10 0 6 -5 10 -11 10 -5 0 -7
-4 -4 -10z"/>
<path d="M2870 781 c0 -6 4 -13 10 -16 6 -3 7 1 4 9 -7 18 -14 21 -14 7z"/>
<path d="M2566 4723 c-6 -14 -5 -15 5 -6 7 7 10 15 7 18 -3 3 -9 -2 -12 -12z"/>
<path d="M2617 4704 c15 -14 23 -23 16 -20 -6 4 -15 1 -19 -5 -5 -8 -3 -9 6
-4 10 6 12 4 7 -8 -4 -10 -1 -17 6 -17 7 0 14 14 15 31 1 17 -2 28 -7 25 -5
-3 -14 1 -21 9 -7 8 -17 15 -22 15 -5 0 4 -12 19 -26z"/>
<path d="M2590 4700 c0 -5 5 -10 11 -10 5 0 7 5 4 10 -3 6 -8 10 -11 10 -2 0
-4 -4 -4 -10z"/>
<path d="M2656 4659 c3 -5 -2 -12 -11 -16 -15 -5 -16 -7 -2 -15 10 -5 14 -15
10 -25 -4 -10 -2 -14 6 -12 7 3 12 8 11 13 -1 4 7 14 17 22 16 13 16 13 1 8
-13 -4 -18 -1 -18 11 0 10 5 14 13 9 6 -4 8 -3 4 1 -11 12 -38 15 -31 4z"/>
<path d="M2674 4584 c-21 -22 -21 -23 -4 -41 9 -11 20 -25 23 -33 4 -12 6 -11
6 2 1 9 -6 24 -15 33 -15 15 -15 17 1 35 25 28 15 31 -11 4z"/>
<path d="M2310 4520 c0 -5 5 -10 10 -10 6 0 10 5 10 10 0 6 -4 10 -10 10 -5 0
-10 -4 -10 -10z"/>
<path d="M2876 4248 c3 -5 10 -6 15 -3 13 9 11 12 -6 12 -8 0 -12 -4 -9 -9z"/>
<path d="M2320 4240 c-9 -6 -10 -10 -3 -10 6 0 15 5 18 10 8 12 4 12 -15 0z"/>
<path d="M2277 4170 c-15 -16 -23 -30 -19 -30 5 0 18 14 30 30 13 17 21 30 19
30 -2 0 -16 -13 -30 -30z"/>
<path d="M2880 4180 c-13 -8 -12 -10 3 -10 9 0 17 5 17 10 0 12 -1 12 -20 0z"/>
<path d="M2916 4141 c-3 -5 1 -14 8 -20 10 -9 16 -9 21 -1 4 6 1 9 -7 8 -7 -2
-12 3 -10 10 2 14 -4 16 -12 3z"/>
<path d="M3133 4101 c-13 -11 -23 -25 -23 -33 0 -10 3 -9 10 2 9 13 10 13 11
0 1 -8 1 -19 0 -23 -1 -5 3 -6 9 -2 9 5 14 -7 11 -27 0 -4 8 -5 18 -3 14 2 17
-1 14 -15 -3 -10 0 -21 6 -24 5 -4 8 -14 5 -24 -5 -14 -4 -14 4 -2 8 10 7 19
-1 29 -10 12 -9 12 10 1 16 -11 19 -17 11 -27 -7 -9 -7 -13 1 -13 6 0 11 3 12
8 0 4 2 15 4 25 2 9 -3 17 -10 17 -7 0 -16 7 -19 16 -4 10 -2 13 6 8 8 -5 9
-2 4 11 -4 11 -1 22 6 27 9 6 8 8 -6 6 -10 -2 -21 3 -24 11 -3 9 0 11 9 7 8
-4 6 -1 -3 7 -10 8 -14 18 -10 23 4 4 -1 2 -10 -5 -16 -12 -22 -9 -19 12 1 10
-1 9 -26 -12z"/>
<path d="M2215 4100 c-3 -5 -1 -10 4 -10 6 0 11 5 11 10 0 6 -2 10 -4 10 -3 0
-8 -4 -11 -10z"/>
<path d="M3273 3745 c0 -8 4 -12 9 -9 5 3 6 10 3 15 -9 13 -12 11 -12 -6z"/>
<path d="M1986 3318 c3 -5 10 -6 15 -3 13 9 11 12 -6 12 -8 0 -12 -4 -9 -9z"/>
<path d="M1965 2980 c3 -5 8 -10 11 -10 2 0 4 5 4 10 0 6 -5 10 -11 10 -5 0
-7 -4 -4 -10z"/>
<path d="M2351 2713 c6 -7 17 -13 23 -12 7 0 6 2 -2 6 -6 2 -10 8 -8 12 3 4
-1 8 -9 8 -11 0 -12 -4 -4 -14z"/>
<path d="M3416 2633 c-6 -14 -5 -15 5 -6 7 7 10 15 7 18 -3 3 -9 -2 -12 -12z"/>
<path d="M1917 2539 c7 -7 15 -10 18 -7 3 3 -2 9 -12 12 -14 6 -15 5 -6 -5z"/>
<path d="M2120 2396 c0 -8 4 -17 9 -20 5 -4 7 3 4 14 -6 23 -13 26 -13 6z"/>
<path d="M3393 2370 c1 -21 10 -18 13 5 1 8 -2 15 -6 15 -5 0 -8 -9 -7 -20z"/>
<path d="M2350 2362 c0 -6 5 -14 10 -17 8 -5 7 -12 -2 -23 -12 -15 -11 -16 5
-3 14 11 15 17 5 30 -7 9 -14 18 -15 20 -2 2 -3 -1 -3 -7z"/>
<path d="M2375 1809 c-4 -6 -5 -12 -2 -15 2 -3 7 2 10 11 7 17 1 20 -8 4z"/>
<path d="M2393 1747 c0 -8 6 -14 14 -14 9 0 10 4 2 14 -6 7 -12 13 -14 13 -1
0 -2 -6 -2 -13z"/>
<path d="M2600 1360 c0 -5 5 -10 11 -10 5 0 7 5 4 10 -3 6 -8 10 -11 10 -2 0
-4 -4 -4 -10z"/>
<path d="M3861 1154 c0 -11 3 -14 6 -6 3 7 2 16 -1 19 -3 4 -6 -2 -5 -13z"/>
<path d="M2330 1021 c0 -8 -8 -11 -20 -8 -17 4 -18 3 -8 -16 11 -21 11 -21
-15 -4 -19 12 -28 14 -33 5 -4 -6 -3 -8 3 -5 6 4 17 -1 24 -11 7 -9 9 -14 5
-10 -5 4 -16 2 -24 -5 -13 -9 -14 -9 -8 1 4 7 1 12 -9 12 -9 0 -13 -5 -10 -11
4 -6 -2 -5 -13 2 -23 15 -32 10 -37 -18 -1 -10 -8 -17 -14 -15 -6 1 -11 -6
-11 -15 0 -15 -2 -16 -10 -3 -7 11 -10 11 -10 2 0 -7 -4 -11 -8 -8 -5 3 -9 -1
-9 -9 0 -8 4 -12 8 -9 4 2 11 0 14 -6 4 -6 1 -9 -5 -8 -8 2 -13 -10 -14 -28
-1 -26 3 -31 17 -28 10 1 15 -1 12 -5 -3 -5 3 -19 13 -30 l17 -22 13 22 c10
15 10 19 1 14 -8 -6 -10 -4 -4 5 5 9 4 11 -4 6 -6 -4 -9 -12 -6 -17 4 -5 1 -9
-4 -9 -12 0 -15 30 -3 31 4 0 15 2 25 4 9 2 15 -1 12 -5 -3 -5 -1 -11 4 -15 6
-3 7 -13 4 -23 -3 -9 -3 -14 2 -10 4 4 14 3 21 -3 8 -7 14 -6 20 2 4 7 3 9 -3
6 -6 -4 -13 -1 -16 6 -4 10 2 13 18 9 13 -2 26 -12 28 -21 4 -12 5 -11 6 4 1
16 3 17 10 6 5 -8 17 -16 25 -17 9 -1 14 2 10 7 -3 5 -11 6 -17 3 -7 -4 -9 -3
-4 1 12 14 49 17 41 3 -5 -7 -3 -8 7 -2 21 13 39 14 39 2 0 -6 -6 -8 -13 -5
-8 3 -14 -1 -14 -8 0 -10 5 -11 19 -4 10 5 18 7 18 3 0 -3 6 -1 13 5 8 6 17 8
21 4 4 -4 4 0 0 10 -3 9 -1 24 6 32 10 12 9 15 -9 15 -11 0 -21 5 -21 10 0 6
-12 10 -26 10 -14 0 -23 4 -19 10 3 6 -1 10 -10 10 -9 0 -14 -4 -11 -8 3 -5
-1 -9 -9 -9 -8 0 -13 5 -12 11 1 5 -3 10 -10 11 -6 0 -15 4 -20 9 -5 5 -3 6 5
2 7 -4 12 -1 12 8 0 9 -6 15 -12 14 -7 -2 -12 3 -10 11 1 7 -2 19 -8 26 -7 9
-7 15 -1 19 5 4 12 2 16 -4 4 -6 11 -8 16 -4 5 3 7 9 5 13 -3 3 4 7 15 7 19 0
18 -1 -3 -17 -12 -10 -27 -15 -33 -12 -5 4 -6 2 -2 -2 12 -14 40 -15 56 -2 11
9 13 9 8 0 -4 -6 -2 -15 5 -19 7 -4 10 -4 6 1 -4 4 -3 14 4 22 9 11 8 13 -1
11 -8 -2 -15 5 -16 16 -2 10 -9 24 -15 30 -8 8 -9 6 -4 -9 7 -17 5 -18 -8 -8
-8 7 -19 9 -24 5 -4 -4 -2 1 5 11 8 9 11 20 7 24 -3 3 -6 1 -6 -6z"/>
<path d="M2415 989 c-4 -6 -5 -12 -2 -15 2 -3 7 2 10 11 7 17 1 20 -8 4z"/>
<path d="M2356 922 c-2 -4 9 -15 25 -24 35 -21 37 -18 4 10 -13 12 -26 18 -29
14z"/>
<path d="M2340 891 c0 -6 4 -13 10 -16 6 -3 7 1 4 9 -7 18 -14 21 -14 7z"/>
<path d="M2104 850 c0 -13 4 -16 10 -10 7 7 7 13 0 20 -6 6 -10 3 -10 -10z"/>
<path d="M2470 835 c8 -9 8 -15 0 -20 -17 -10 -11 -23 8 -18 24 6 22 45 -2 49
-13 2 -15 -1 -6 -11z"/>
<path d="M3805 840 c-4 -6 -11 -7 -17 -4 -7 4 -8 2 -4 -5 6 -9 11 -9 22 0 14
11 18 19 10 19 -3 0 -8 -5 -11 -10z"/>
<path d="M2196 763 c-6 -14 -5 -15 5 -6 7 7 10 15 7 18 -3 3 -9 -2 -12 -12z"/>
<path d="M3778 768 c9 -9 7 -15 -6 -25 -15 -13 -15 -13 5 -3 22 10 22 40 0 40
-8 0 -7 -4 1 -12z"/>
<path d="M2244 672 c6 -9 1 -11 -18 -8 -14 3 -28 0 -31 -5 -4 -5 -11 -9 -16
-9 -6 0 -8 4 -5 8 3 5 -1 9 -9 9 -11 0 -12 -4 -4 -14 8 -9 8 -13 1 -13 -6 0
-14 5 -17 10 -5 8 -12 7 -22 -1 -13 -11 -12 -13 1 -21 8 -4 26 -4 40 2 24 9
30 6 28 -11 -1 -3 12 -5 28 -5 21 0 27 3 22 15 -4 12 0 11 19 -4 13 -11 21
-16 17 -11 -4 5 -3 15 3 23 8 8 8 13 1 13 -6 0 -12 -5 -14 -12 -3 -7 -7 -5
-11 6 -4 9 -3 15 1 12 4 -2 14 0 22 6 13 8 12 9 -1 5 -9 -3 -22 0 -29 6 -10 9
-11 9 -6 -1z m-11 -26 c-7 -29 -10 -31 -26 -17 -9 7 -15 17 -12 21 6 10 41 6
38 -4z m-88 -6 c3 -5 1 -10 -4 -10 -6 0 -11 5 -11 10 0 6 2 10 4 10 3 0 8 -4
11 -10z"/>
<path d="M2206 638 c3 -5 10 -6 15 -3 13 9 11 12 -6 12 -8 0 -12 -4 -9 -9z"/>
<path d="M1640 663 c21 -10 -1 -19 -44 -17 -37 2 -45 -1 -49 -18 -3 -11 -10
-17 -16 -13 -7 4 -8 -1 -4 -12 6 -15 4 -16 -8 -6 -12 10 -15 8 -15 -7 0 -14 4
-16 17 -10 9 5 25 8 36 6 12 -3 20 1 20 11 0 10 -7 13 -21 9 -19 -5 -20 -4 -4
8 10 7 17 15 15 17 -1 2 4 -3 11 -11 7 -8 15 -13 17 -10 2 3 7 1 12 -4 5 -5 3
-6 -4 -2 -7 4 -13 2 -13 -4 0 -7 6 -10 13 -7 6 2 11 11 9 20 -4 22 30 15 39
-9 5 -12 7 -5 5 20 -1 22 -8 41 -15 42 -6 1 -7 0 -1 -3z"/>
<path d="M2096 653 c-6 -14 -5 -15 5 -6 7 7 10 15 7 18 -3 3 -9 -2 -12 -12z"/>
<path d="M3836 662 c-3 -5 1 -9 9 -9 8 0 12 4 9 9 -3 4 -7 8 -9 8 -2 0 -6 -4
-9 -8z"/>
<path d="M1430 635 c-7 -8 -9 -15 -4 -15 5 0 0 -8 -11 -17 -13 -10 -15 -14 -4
-10 9 3 22 1 30 -4 12 -7 12 -9 0 -9 -8 0 -11 -3 -8 -6 4 -4 13 -1 22 6 11 9
15 9 15 1 0 -7 5 -9 10 -6 6 3 10 18 10 32 0 15 -3 23 -7 20 -3 -4 -14 0 -23
8 -15 14 -18 14 -30 0z m50 -39 c0 -2 -8 -3 -17 -1 -10 2 -22 4 -28 4 -5 1 -3
6 5 11 11 7 11 10 2 10 -7 0 -11 4 -7 10 5 8 45 -22 45 -34z"/>
<path d="M1835 641 c-3 -5 -2 -12 3 -15 5 -3 9 1 9 9 0 17 -3 19 -12 6z"/>
<path d="M2297 635 c-4 -8 -1 -17 6 -21 7 -4 9 -4 5 1 -4 4 -3 14 3 22 7 8 8
13 1 13 -5 0 -12 -7 -15 -15z"/>
<path d="M2677 625 c-15 -14 -24 -25 -19 -25 5 0 12 3 16 8 4 4 12 7 18 7 6 0
12 8 14 18 3 21 5 21 -29 -8z"/>
<path d="M1145 611 c-16 -31 -6 -49 18 -34 20 13 58 10 53 -4 -3 -7 0 -15 6
-19 6 -4 8 -3 4 4 -3 6 -2 13 3 16 5 4 11 -2 14 -11 2 -10 4 -4 4 14 0 34 -24
53 -33 28 -4 -8 -10 -15 -15 -15 -6 0 -5 10 1 23 10 20 10 20 -3 5 -16 -20
-32 -25 -21 -6 5 7 3 8 -6 3 -10 -6 -12 -4 -7 8 10 28 -1 19 -18 -12z m20 -10
c3 -5 2 -12 -3 -15 -5 -3 -9 1 -9 9 0 17 3 19 12 6z m70 -1 c3 -5 1 -10 -4
-10 -6 0 -11 5 -11 10 0 6 2 10 4 10 3 0 8 -4 11 -10z"/>
<path d="M1297 633 c-4 -3 -2 -12 4 -20 13 -15 5 -17 -20 -4 -15 8 -17 6 -15
-12 1 -12 3 -25 3 -29 1 -5 6 -8 11 -8 6 0 9 6 8 13 -2 6 4 12 12 12 8 0 14
-6 12 -13 -1 -8 2 -11 8 -7 8 5 7 11 -1 21 -8 9 -8 14 -1 14 6 0 15 -7 20 -16
8 -15 10 -15 16 1 5 13 9 15 19 6 10 -8 14 -7 14 4 0 8 -5 11 -10 8 -7 -4 -8
1 -4 13 6 16 4 16 -12 -3 -10 -12 -21 -19 -25 -16 -3 3 -1 12 5 20 9 9 8 13 0
13 -6 0 -11 -5 -11 -11 0 -6 -6 -9 -12 -6 -7 2 -12 10 -10 16 2 12 -2 14 -11
4z"/>
<path d="M4477 626 c4 -13 3 -17 -4 -13 -13 8 -43 -19 -42 -36 0 -8 2 -7 6 1
4 10 10 7 21 -10 9 -13 16 -26 14 -30 -4 -15 16 -8 22 7 3 8 12 12 20 9 8 -3
17 -1 20 4 3 5 -6 8 -19 6 -14 -1 -25 2 -25 8 0 6 7 7 15 4 9 -3 18 1 21 9 4
8 10 12 15 9 5 -3 9 -1 9 3 0 15 -38 34 -45 22 -4 -6 -12 -3 -21 8 -13 17 -14
17 -7 -1z m44 -29 c-13 -13 -26 -3 -16 12 3 6 11 8 17 5 6 -4 6 -10 -1 -17z
m-54 -9 c-3 -8 -6 -5 -6 6 -1 11 2 17 5 13 3 -3 4 -12 1 -19z"/>
<path d="M1395 620 c3 -5 8 -10 11 -10 2 0 4 5 4 10 0 6 -5 10 -11 10 -5 0 -7
-4 -4 -10z"/>
<path d="M1770 619 c0 -5 5 -7 10 -4 6 3 10 8 10 11 0 2 -4 4 -10 4 -5 0 -10
-5 -10 -11z"/>
<path d="M1868 608 c2 -10 6 -18 7 -18 1 0 5 8 7 18 3 11 0 19 -7 19 -7 0 -10
-8 -7 -19z"/>
<path d="M4233 612 c0 -12 5 -22 9 -22 11 0 10 12 -2 30 -7 12 -9 10 -7 -8z"/>
<path d="M4254 615 c5 -14 0 -24 -16 -37 -18 -15 -19 -17 -4 -11 15 5 17 3 11
-8 -7 -11 -6 -12 6 -2 18 15 23 59 7 69 -8 5 -9 1 -4 -11z"/>
<path d="M670 605 c-7 -9 -8 -15 -2 -15 5 0 12 7 16 15 3 8 4 15 2 15 -2 0 -9
-7 -16 -15z"/>
<path d="M795 610 c-4 -6 -12 -7 -18 -4 -7 4 -9 4 -5 0 3 -4 -2 -16 -13 -27
-10 -10 -19 -25 -19 -31 0 -7 6 -4 12 6 6 11 23 30 37 42 14 13 23 24 19 24
-4 0 -10 -5 -13 -10z"/>
<path d="M1105 610 c4 -6 -7 -18 -24 -28 -30 -17 -40 -32 -22 -32 5 0 11 6 14
13 2 6 8 9 12 5 4 -4 3 -14 -3 -21 -9 -10 -8 -14 1 -14 8 0 14 6 15 14 1 7 3
20 4 28 1 8 5 12 9 9 4 -2 6 -13 4 -24 -2 -12 0 -18 5 -15 14 9 8 63 -7 69 -8
3 -11 1 -8 -4z"/>
<path d="M726 598 c3 -4 9 -8 15 -8 5 0 9 4 9 8 0 5 -7 9 -15 9 -8 0 -12 -4
-9 -9z"/>
<path d="M831 594 c0 -11 3 -14 6 -6 3 7 2 16 -1 19 -3 4 -6 -2 -5 -13z"/>
<path d="M1996 602 c-3 -5 1 -9 9 -9 8 0 12 4 9 9 -3 4 -7 8 -9 8 -2 0 -6 -4
-9 -8z"/>
<path d="M3836 598 c3 -5 10 -6 15 -3 13 9 11 12 -6 12 -8 0 -12 -4 -9 -9z"/>
<path d="M615 588 c-6 -14 -11 -16 -28 -7 -21 10 -21 9 -3 -5 10 -9 24 -13 29
-9 6 4 8 0 5 -8 -4 -10 3 -15 26 -15 17 -1 25 1 18 3 -6 3 -9 9 -6 14 3 6 11
5 20 -2 10 -8 14 -8 14 0 0 10 -13 15 -32 12 -5 0 -8 4 -8 10 0 5 -4 8 -9 5
-5 -4 -11 0 -14 6 -3 9 -7 8 -12 -4z m35 -23 c0 -12 -19 -12 -23 0 -4 9 -1 12
9 8 7 -3 14 -7 14 -8z"/>
<path d="M695 590 c-7 -11 22 -26 32 -16 4 3 -1 6 -11 6 -9 0 -14 5 -11 10 3
6 4 10 1 10 -3 0 -8 -5 -11 -10z"/>
<path d="M793 581 c-21 -18 -21 -31 0 -31 6 0 7 3 4 7 -4 3 0 15 10 25 21 23
14 23 -14 -1z"/>
<path d="M1031 573 c-10 -26 -10 -27 4 -9 8 11 15 23 15 28 0 15 -7 8 -19 -19z"/>
<path d="M850 579 c0 -5 5 -7 10 -4 6 3 10 8 10 11 0 2 -4 4 -10 4 -5 0 -10
-5 -10 -11z"/>
<path d="M930 586 c0 -2 7 -9 15 -16 13 -11 14 -10 9 4 -5 14 -24 23 -24 12z"/>
<path d="M393 567 c0 -8 12 -21 26 -27 22 -10 24 -9 11 2 -8 7 -19 19 -25 27
-10 11 -12 11 -12 -2z"/>
<path d="M508 558 c-25 -25 -23 -35 2 -13 25 22 26 9 3 -19 l-18 -21 24 20
c13 11 25 19 28 17 3 -2 8 0 11 4 4 4 1 3 -7 -1 -11 -6 -13 -4 -8 9 4 9 3 15
-2 11 -5 -3 -11 -2 -13 3 -1 4 -11 0 -20 -10z"/>
<path d="M869 563 c-13 -16 -12 -17 4 -4 9 7 17 15 17 17 0 8 -8 3 -21 -13z"/>
<path d="M567 559 c7 -7 15 -10 18 -7 3 3 -2 9 -12 12 -14 6 -15 5 -6 -5z"/>
<path d="M810 560 c0 -5 5 -10 10 -10 6 0 10 5 10 10 0 6 -4 10 -10 10 -5 0
-10 -4 -10 -10z"/>
<path d="M893 557 c-3 -5 0 -14 6 -20 9 -9 11 -8 5 6 -5 13 -2 16 10 11 9 -3
16 -2 16 3 0 12 -29 13 -37 0z"/>
<path d="M990 560 c0 -5 5 -10 11 -10 5 0 7 5 4 10 -3 6 -8 10 -11 10 -2 0 -4
-4 -4 -10z"/>
<path d="M940 546 c0 -2 9 -6 20 -9 11 -3 18 -1 14 4 -5 9 -34 13 -34 5z"/>
<path d="M1170 540 c0 -5 5 -10 11 -10 5 0 7 5 4 10 -3 6 -8 10 -11 10 -2 0
-4 -4 -4 -10z"/>
<path d="M2977 543 c-4 -3 -7 -11 -7 -17 0 -6 5 -5 12 2 6 6 9 14 7 17 -3 3
-9 2 -12 -2z"/>
<path d="M390 536 c0 -2 8 -10 18 -17 15 -13 16 -12 3 4 -13 16 -21 21 -21 13z"/>
<path d="M450 536 c0 -2 8 -10 18 -17 15 -13 16 -12 3 4 -13 16 -21 21 -21 13z"/>
<path d="M596 527 c3 -10 9 -15 12 -12 3 3 0 11 -7 18 -10 9 -11 8 -5 -6z"/>
<path d="M4341 511 c-8 -5 -9 -11 -3 -15 5 -3 12 1 16 9 6 17 6 18 -13 6z"/>
<path d="M2435 490 c-3 -11 -11 -21 -16 -21 -13 -2 -29 -6 -31 -9 -9 -6 -50
-5 -54 2 -7 12 -34 10 -34 -3 0 -5 4 -8 9 -4 5 3 13 0 17 -7 4 -7 4 -10 -1 -6
-4 4 -14 0 -22 -8 -8 -8 -19 -12 -24 -9 -5 4 -9 3 -9 -2 0 -13 49 -32 56 -22
3 5 3 13 0 18 -3 5 0 11 8 14 8 3 13 -1 12 -8 0 -8 4 -13 9 -12 6 1 9 5 8 10
-5 13 10 7 23 -10 12 -16 13 -15 8 10 -2 15 0 27 6 27 5 0 9 -3 9 -7 -4 -23 4
-31 26 -28 14 1 28 5 32 9 3 3 13 0 21 -7 11 -8 14 -8 9 0 -4 6 -3 13 3 15 15
5 -11 58 -29 58 -8 0 -11 -6 -7 -16 5 -14 4 -15 -8 -5 -8 7 -12 19 -9 27 3 8
3 14 0 14 -3 0 -9 -9 -12 -20z m10 -68 c-3 -3 -11 0 -18 7 -9 10 -8 11 6 5 10
-3 15 -9 12 -12z m-125 -12 c0 -5 -2 -10 -4 -10 -3 0 -8 5 -11 10 -3 6 -1 10
4 10 6 0 11 -4 11 -10z"/>
<path d="M2340 493 c0 -7 -7 -10 -17 -6 -15 5 -14 3 2 -10 14 -11 24 -12 32
-5 9 7 13 7 13 -2 0 -9 3 -10 13 -1 8 6 16 8 19 5 3 -2 8 2 11 10 5 12 1 13
-16 7 -35 -14 -39 -13 -48 1 -6 9 -9 10 -9 1z"/>
<path d="M2055 481 c6 -10 2 -12 -16 -6 -17 4 -20 3 -10 -3 11 -8 10 -12 -5
-20 -10 -6 -15 -14 -11 -18 5 -5 13 -2 18 6 9 12 10 12 5 -2 -3 -10 -1 -18 5
-18 6 0 7 -5 3 -11 -5 -8 -9 -8 -14 1 -5 7 -13 9 -21 5 -8 -5 -11 -5 -7 0 4 4
3 17 -3 28 -8 14 -8 18 0 13 6 -4 11 -2 11 4 0 7 -6 10 -14 7 -7 -3 -19 0 -26
6 -10 10 -10 7 0 -11 11 -22 10 -23 -9 -13 -13 8 -22 8 -26 1 -4 -6 -10 -8
-14 -6 -4 3 -8 0 -8 -7 -1 -22 -8 -42 -18 -49 -5 -4 0 -6 12 -5 13 0 25 7 27
14 3 8 -1 10 -12 6 -14 -6 -15 -5 -2 9 19 20 33 12 26 -16 -5 -20 -5 -20 9 -2
14 19 21 10 15 -19 -1 -5 9 0 23 13 17 16 27 20 32 12 5 -7 19 -2 43 16 19 15
32 22 28 16 -4 -7 1 -20 10 -30 17 -16 18 -16 11 1 -5 13 -3 17 5 14 7 -2 12
-13 11 -23 -1 -18 -1 -18 13 1 9 11 20 19 25 17 6 -1 8 1 5 6 -3 5 8 9 24 10
17 0 30 -4 30 -9 0 -6 4 -8 9 -5 5 4 11 3 14 -1 2 -5 2 -3 1 4 -2 6 2 14 9 16
7 2 8 8 3 13 -5 5 -11 4 -13 -3 -5 -15 -23 -18 -23 -4 0 5 14 14 30 21 17 7
33 17 36 22 4 6 -3 5 -14 -1 -25 -13 -35 -14 -28 -3 3 5 -1 9 -9 9 -8 0 -13
-5 -12 -10 1 -5 -4 -12 -12 -15 -10 -3 -11 0 -5 9 6 12 5 12 -8 1 -9 -8 -14
-21 -12 -30 5 -15 4 -15 -6 1 -6 9 -8 22 -4 28 4 8 1 8 -12 1 -11 -5 -26 -7
-34 -5 -13 4 -13 3 0 -6 8 -5 17 -8 21 -5 4 2 11 -1 15 -7 5 -8 3 -9 -6 -4 -9
6 -11 4 -5 -5 6 -9 4 -11 -5 -5 -8 5 -11 4 -7 -2 3 -5 0 -10 -8 -10 -11 0 -12
4 -4 14 9 10 7 13 -7 14 -11 1 -25 1 -33 0 -8 -2 -10 2 -5 11 6 10 4 10 -9 -1
-9 -7 -18 -11 -18 -7 -1 3 -2 10 -3 15 0 5 -5 13 -10 18 -5 5 -6 2 -1 -6z m31
-33 c5 4 2 -1 -5 -10 -18 -23 -27 -23 -34 2 -4 16 -2 18 13 10 9 -5 21 -6 26
-2z m-125 -15 c13 -16 12 -17 -3 -4 -17 13 -22 21 -14 21 2 0 10 -8 17 -17z
m163 8 c3 -5 -1 -11 -9 -14 -9 -4 -12 -1 -8 9 6 16 10 17 17 5z m-124 -35 c0
-3 -4 -8 -10 -11 -5 -3 -10 -1 -10 4 0 6 5 11 10 11 6 0 10 -2 10 -4z"/>
<path d="M2501 485 c-1 -6 6 -20 14 -32 11 -15 12 -22 3 -25 -8 -3 -8 -9 1
-24 12 -17 12 -17 7 0 -5 15 -2 17 14 13 17 -4 19 -3 9 9 -6 8 -8 14 -3 14 5
0 1 5 -9 11 -9 6 -14 15 -11 21 4 6 3 8 -4 4 -5 -3 -13 0 -15 6 -3 7 -6 8 -6
3z"/>
<path d="M1716 458 c14 -22 13 -36 -3 -42 -11 -5 -13 -1 -7 16 6 21 6 21 -10
5 -10 -9 -22 -14 -28 -11 -7 4 -8 2 -4 -4 4 -7 1 -12 -8 -12 -8 0 -14 6 -12
13 1 6 1 9 -1 5 -2 -4 -12 -4 -21 -1 -13 4 -14 3 -3 -5 8 -6 9 -12 3 -16 -5
-3 -15 1 -22 9 -7 8 -16 15 -21 15 -4 0 5 -14 21 -32 16 -17 26 -36 23 -41 -3
-6 -1 -7 5 -3 6 4 9 13 6 20 -3 8 0 17 6 21 6 4 9 1 8 -7 -2 -7 3 -12 11 -10
9 2 11 -3 7 -15 -6 -17 -5 -17 7 -1 8 10 17 14 21 10 4 -4 6 -2 4 5 -1 6 0 10
3 10 3 -1 12 3 20 10 11 9 22 8 47 -3 18 -7 31 -18 28 -23 -4 -5 -2 -12 3 -16
6 -3 8 3 6 15 -2 13 1 20 11 20 9 0 12 -5 8 -12 -5 -10 -4 -10 6 -1 7 6 18 9
25 7 19 -8 48 43 36 64 -7 11 -11 12 -11 4 0 -7 -5 -10 -12 -6 -7 5 -8 3 -3
-6 5 -8 3 -11 -6 -8 -8 3 -12 12 -11 19 2 8 0 11 -4 7 -4 -4 -14 -2 -22 5 -13
9 -14 9 -8 0 7 -12 -5 -18 -28 -14 -16 3 -25 -23 -13 -39 10 -13 10 -13 -4 -3
-9 7 -19 9 -24 5 -4 -4 -5 2 -1 13 4 14 -1 24 -15 33 -17 11 -20 11 -13 0z
m159 -28 c18 15 19 1 1 -23 -11 -13 -19 -15 -37 -8 -19 8 -20 10 -6 10 10 1
15 6 12 11 -4 6 -10 8 -14 6 -4 -3 -8 1 -8 9 0 13 3 12 18 -1 15 -14 21 -14
34 -4z m-85 0 c0 -5 -5 -10 -11 -10 -5 0 -7 5 -4 10 3 6 8 10 11 10 2 0 4 -4
4 -10z m-99 -33 c-6 -6 -18 -12 -27 -13 -14 -2 -14 0 1 17 10 10 22 16 27 13
6 -4 6 -10 -1 -17z m112 8 c-3 -9 -8 -14 -10 -11 -3 3 -2 9 2 15 9 16 15 13 8
-4z"/>
<path d="M2276 445 c4 -8 10 -12 15 -9 11 6 2 24 -11 24 -5 0 -7 -7 -4 -15z"/>
<path d="M3306 448 c3 -5 10 -6 15 -3 13 9 11 12 -6 12 -8 0 -12 -4 -9 -9z"/>
<path d="M1286 413 c-5 -12 -9 -13 -20 -4 -11 9 -14 9 -12 -1 1 -7 5 -19 9
-25 5 -7 4 -13 -1 -13 -12 0 -33 25 -27 32 3 2 -8 4 -24 4 -22 0 -28 -3 -23
-14 4 -11 1 -13 -9 -7 -11 7 -11 5 1 -10 14 -17 13 -17 -10 -10 -28 9 -27 6
14 -19 18 -12 25 -13 20 -5 -5 8 -9 21 -11 29 -1 13 0 13 10 0 7 -8 21 -22 32
-30 18 -14 19 -14 7 2 -9 11 -10 18 -2 23 5 3 10 2 10 -2 0 -5 10 -14 23 -22
20 -13 21 -13 8 3 -8 9 -11 20 -7 23 4 4 10 2 14 -4 4 -6 20 -11 36 -11 23 0
26 2 12 10 -9 5 -21 6 -26 3 -23 -14 -8 4 17 20 25 17 26 17 19 -1 -6 -15 -5
-17 5 -6 10 9 10 15 1 24 -7 7 -12 8 -12 4 0 -5 -11 -1 -24 7 -22 15 -25 15
-30 0z m20 -15 c4 -6 3 -8 -4 -4 -5 3 -12 0 -15 -6 -3 -10 -8 -10 -18 1 -8 8
-9 11 -2 7 6 -3 14 -2 18 4 8 13 12 13 21 -2z m-77 -12 c8 -10 9 -16 1 -21 -5
-3 -10 1 -10 10 0 9 -4 13 -10 10 -5 -3 -10 -1 -10 4 0 15 15 14 29 -3z"/>
<path d="M1408 416 c-15 -11 -16 -16 -4 -31 10 -14 15 -15 21 -5 5 9 4 11 -3
6 -7 -4 -12 -1 -12 9 0 12 6 15 20 10 11 -3 20 -3 20 2 0 5 9 9 21 10 16 2 18
-1 9 -12 -8 -9 -8 -15 0 -20 6 -3 8 -10 6 -14 -3 -3 4 -7 14 -7 10 0 16 6 13
13 -9 22 13 14 26 -9 l11 -23 -6 24 c-4 16 -3 21 5 17 7 -5 9 -1 5 9 -5 11 -2
14 9 9 10 -3 13 -12 10 -22 -4 -9 -3 -14 2 -10 4 4 15 2 23 -5 11 -9 11 -4 -2
16 -18 26 -27 31 -55 28 -7 -2 -10 2 -6 9 6 9 2 9 -14 1 -14 -8 -21 -8 -21 -1
0 11 -37 9 -57 -3 -6 -4 -13 -3 -15 2 -1 5 -11 4 -20 -3z m127 -17 c3 -5 0 -6
-8 -3 -8 3 -18 0 -22 -5 -3 -6 -11 -9 -16 -5 -5 3 -7 9 -5 13 7 10 45 11 51 0z"/>
<path d="M4654 416 c5 -14 3 -17 -11 -12 -15 6 -16 5 -5 -5 17 -18 35 1 21 21
-9 12 -10 12 -5 -4z"/>
<path d="M1090 405 c-11 -13 -15 -13 -23 -3 -6 9 -7 8 -3 -4 3 -11 0 -18 -7
-18 -8 0 -8 -3 2 -9 10 -7 8 -12 -10 -25 -13 -9 -19 -16 -13 -16 6 0 14 3 18
8 4 4 16 8 27 8 38 3 41 4 36 18 -4 10 -1 13 7 10 7 -3 16 2 20 12 5 13 4 15
-7 5 -11 -9 -17 -8 -26 2 -6 8 -8 17 -4 20 3 4 4 7 1 7 -3 0 -11 -7 -18 -15z
m16 -32 c-2 -9 -10 -17 -18 -19 -16 -2 -18 12 -5 34 11 16 26 7 23 -15z"/>
<path d="M1085 381 c-3 -5 -2 -12 3 -15 5 -3 9 1 9 9 0 17 -3 19 -12 6z"/>
<path d="M3806 403 c-6 -14 -5 -15 5 -6 7 7 10 15 7 18 -3 3 -9 -2 -12 -12z"/>
<path d="M3756 398 c3 -5 10 -6 15 -3 13 9 11 12 -6 12 -8 0 -12 -4 -9 -9z"/>
<path d="M1723 386 c-9 -11 -7 -14 12 -12 17 1 21 4 13 14 -12 14 -10 14 -25
-2z"/>
<path d="M3940 390 c-8 -5 -12 -12 -9 -15 4 -3 12 1 19 10 14 17 11 19 -10 5z"/>
<path d="M1434 367 l-19 -22 22 18 c21 18 21 18 26 0 4 -15 5 -16 6 -1 2 27
-15 29 -35 5z"/>
<path d="M507 357 c4 -7 8 -18 8 -26 0 -15 42 -23 50 -10 3 4 -6 6 -20 4 -16
-1 -24 2 -22 9 2 6 17 10 33 9 16 -1 22 0 14 3 -8 3 -22 8 -30 11 -29 11 -40
11 -33 0z"/>
<path d="M620 360 c-12 -7 -10 -9 7 -7 12 0 19 5 17 9 -6 10 -6 10 -24 -2z"/>
<path d="M910 354 c0 -9 -5 -12 -12 -8 -7 4 -8 3 -4 -4 9 -16 36 -3 29 14 -7
18 -13 18 -13 -2z"/>
<path d="M951 353 c7 -12 15 -20 18 -17 3 2 -3 12 -13 22 -17 16 -18 16 -5 -5z"/>
<path d="M1376 358 c3 -5 10 -6 15 -3 13 9 11 12 -6 12 -8 0 -12 -4 -9 -9z"/>
<path d="M1137 349 c7 -7 15 -10 18 -7 3 3 -2 9 -12 12 -14 6 -15 5 -6 -5z"/>
<path d="M400 335 c-19 -22 -8 -25 13 -3 9 10 13 18 8 18 -5 0 -14 -7 -21 -15z"/>
<path d="M482 337 c-8 -10 -5 -16 11 -27 20 -12 21 -12 9 3 -8 9 -11 21 -7 27
9 14 0 13 -13 -3z"/>
<path d="M593 329 c-2 -23 3 -25 10 -4 4 8 3 16 -1 19 -4 3 -9 -4 -9 -15z"/>
<path d="M747 339 c7 -9 10 -19 6 -22 -3 -4 -1 -7 5 -7 17 0 15 16 -5 31 -16
12 -17 12 -6 -2z"/>
<path d="M860 340 c-9 -6 -10 -10 -3 -10 6 0 15 5 18 10 8 12 4 12 -15 0z"/>
<path d="M621 318 c-13 -20 -12 -22 1 -11 8 7 17 11 20 8 2 -3 5 2 5 10 0 21
-10 19 -26 -7z"/>
<path d="M930 330 c-9 -6 -10 -10 -3 -10 6 0 15 5 18 10 8 12 4 12 -15 0z"/>
<path d="M415 320 c-4 -6 -1 -9 7 -8 7 2 12 -2 11 -8 -1 -6 5 -11 13 -11 11 0
11 4 -3 19 -19 21 -20 21 -28 8z"/>
<path d="M815 320 c-3 -5 -1 -10 4 -10 6 0 11 5 11 10 0 6 -2 10 -4 10 -3 0
-8 -4 -11 -10z"/>
<path d="M1070 326 c0 -2 7 -7 16 -10 8 -3 12 -2 9 4 -6 10 -25 14 -25 6z"/>
<path d="M935 101 c-3 -5 -2 -12 3 -15 5 -3 9 1 9 9 0 17 -3 19 -12 6z"/>
<path d="M516 87 c3 -10 9 -15 12 -12 3 3 0 11 -7 18 -10 9 -11 8 -5 -6z"/>
</g>
</svg>
